<svg width="512" height="512" xmlns="http://www.w3.org/2000/svg">
 <title>consumer-spending-Money-Cash-Payment</title>

 <g>
  <title>background</title>
  <rect fill="none" id="canvas_background" height="514" width="514" y="-1" x="-1"/>
 </g>
 <g>
  <title>Layer 1</title>
  <path fill="#ffffff" id="svg_1" d="m344,200l-320,0a8,8 0 0 0 -8,8l0,176a8,8 0 0 0 8,8l61.006,0a40.121,40.121 0 0 0 0.745,51.8l34.237,39.134l-0.049,13.038l16,0.06l0.061,-16.062a8,8 0 0 0 -1.979,-5.3l-36.228,-41.407a24.062,24.062 0 0 1 1.093,-32.774l8.489,-8.489l28.5,0l0,16l16,0l0,-51.939a12.061,12.061 0 1 1 24.122,0l0,59.939a8,8 0 0 0 8,8a32.036,32.036 0 0 1 32,32l0,40l16,0l0,-40a47.89,47.89 0 0 0 -16.506,-36.18l27.823,-27.82l100.686,0a8,8 0 0 0 8,-8l0,-176a8,8 0 0 0 -8,-8zm-142.593,211.278a47.541,47.541 0 0 0 -9.407,-2.611l0,-16.667l28.686,0l-19.279,19.278zm134.593,-35.278l-144,0l0,-19.939a28.061,28.061 0 1 0 -56.122,0l0,19.939l-103.878,0l0,-160l304,0l0,160z"/>
  <rect fill="#ffffff" id="svg_2" height="16" width="16" y="344" x="48"/>
  <rect fill="#ffffff" id="svg_3" height="16" width="16" y="232" x="48"/>
  <rect fill="#ffffff" id="svg_4" height="16" width="16" y="344" x="304"/>
  <rect fill="#ffffff" id="svg_5" height="16" width="16" y="232" x="304"/>
  <path fill="#ffffff" id="svg_6" d="m56,328a24.028,24.028 0 0 1 24,24a8,8 0 0 0 8,8l32,0l0,-16l-24.8,0a40.126,40.126 0 0 0 -31.2,-31.2l0,-33.6a40.126,40.126 0 0 0 31.2,-31.2l177.6,0a40.126,40.126 0 0 0 31.2,31.2l0,33.6a40.126,40.126 0 0 0 -31.2,31.2l-64.8,0l0,16l72,0a8,8 0 0 0 8,-8a24.028,24.028 0 0 1 24,-24a8,8 0 0 0 8,-8l0,-48a8,8 0 0 0 -8,-8a24.028,24.028 0 0 1 -24,-24a8,8 0 0 0 -8,-8l-192,0a8,8 0 0 0 -8,8a24.028,24.028 0 0 1 -24,24a8,8 0 0 0 -8,8l0,48a8,8 0 0 0 8,8z"/>
  <path fill="#ffffff" id="svg_7" d="m184,272a24,24 0 1 0 24,24a24.028,24.028 0 0 0 -24,-24zm0,32a8,8 0 1 1 8,-8a8.009,8.009 0 0 1 -8,8z"/>
  <path fill="#ffffff" id="svg_8" d="m344,104l-160.022,0a39.983,39.983 0 1 0 -63.978,-47.972a39.983,39.983 0 1 0 -63.978,47.972l-32.022,0a8,8 0 0 0 -8,8l0,32a8,8 0 0 0 8,8l16,0l0,32l16,0l0,-32l16,0l0,32l16,0l0,-32l64,0l0,32l16,0l0,-32l144,0l0,32l16,0l0,-32l16,0a8,8 0 0 0 8,-8l0,-32a8,8 0 0 0 -8,-8zm-192,-48a24,24 0 0 1 0,48l-24,0l0,-24a24.028,24.028 0 0 1 24,-24zm-88,24a24,24 0 0 1 48,0l0,24l-24,0a24.028,24.028 0 0 1 -24,-24zm-32,56l0,-16l40,0l0,16l-40,0zm56,0l0,-16l64,0l0,16l-64,0zm248,0l-168,0l0,-16l168,0l0,16z"/>
  <path fill="#ffffff" id="svg_9" d="m488,16l-256,0a8,8 0 0 0 -8,8l0,32a8,8 0 0 0 8,8l16,0l0,24l16,0l0,-24l48,0l0,24l16,0l0,-24l64,0l0,256l-24,0l0,16l96,0a8,8 0 0 0 8,-8l0,-264l16,0a8,8 0 0 0 8,-8l0,-32a8,8 0 0 0 -8,-8zm-248,32l0,-16l72,0l0,16l-72,0zm88,0l0,-16l64,0l0,16l-64,0zm128,272l-48,0l0,-256l48,0l0,256zm24,-272l-72,0l0,-16l72,0l0,16z"/>
 </g>
</svg>