<svg width="64" height="64" xmlns="http://www.w3.org/2000/svg">

 <g>
  <title>background</title>
  <rect fill="none" id="canvas_background" height="66" width="66" y="-1" x="-1"/>
 </g>
 <g>
  <title>Layer 1</title>
  <g id="svg_1">
   <path fill="#ffffff" id="svg_2" d="m59,31l0,-6l-8.184,0c-0.302,-0.847 -0.969,-1.514 -1.816,-1.816l0,-6.997l-2.328,-0.485l0.831,-0.378c0.909,-0.413 1.497,-1.325 1.497,-2.324s-0.588,-1.911 -1.496,-2.324l-20.18,-9.173c-1.471,-0.667 -3.178,-0.667 -4.648,0l-20.179,9.173c-0.909,0.413 -1.497,1.325 -1.497,2.324s0.588,1.911 1.496,2.324l4.504,2.047l0,12.195l0.485,0.291c0.159,0.095 3.058,1.783 9.515,2.644l0,26.499l18.101,0c0.465,2.279 2.484,4 4.899,4s4.435,-1.721 4.899,-4l18.101,0l0,-28l-4,0zm-12.601,-2.472c0.464,0.295 1.011,0.472 1.601,0.472s1.137,-0.177 1.601,-0.472l1.399,5.595l0,0.877l-6,0l0,-0.877l1.399,-5.595zm1.601,-3.528c0.552,0 1,0.449 1,1s-0.448,1 -1,1s-1,-0.449 -1,-1s0.448,-1 1,-1zm-1,-7.187l0,5.371c-1.099,0.392 -1.896,1.4 -1.979,2.612l-1.99,7.962l-0.031,3.242l10,0l0,-3l-1.724,-7l5.724,0l0,26l-16,0l0,-22.437c0.955,-0.382 1.452,-0.668 1.515,-0.706l0.485,-0.291l0,-12.195l0.59,-0.268l3.41,0.71zm-24,15.156c0.646,0.019 1.309,0.031 2,0.031c6.658,0 11.205,-0.906 14,-1.747l0,21.747l-16,0l0,-20.031zm-20,-19.969c0,-0.216 0.127,-0.414 0.324,-0.503l20.18,-9.172c0.473,-0.216 0.976,-0.325 1.496,-0.325s1.023,0.109 1.496,0.324l20.181,9.173c0.196,0.089 0.323,0.287 0.323,0.503s-0.127,0.414 -0.324,0.503l-3.318,1.508l-19.154,-3.991l-0.408,1.958l16.48,3.433l-13.78,6.264c-0.945,0.431 -2.047,0.43 -2.992,0l-20.181,-9.172c-0.196,-0.089 -0.323,-0.287 -0.323,-0.503zm6,5.28l13.676,6.217c0.735,0.334 1.516,0.503 2.324,0.503s1.589,-0.169 2.324,-0.503l13.676,-6.217l0,10.105c-1.501,0.693 -6.522,2.615 -16,2.615c-9.482,0 -14.504,-1.924 -16,-2.615l0,-10.105zm52,38.72l-18,0l0,1c0,1.654 -1.346,3 -3,3s-3,-1.346 -3,-3l0,-1l-18,0l0,-24.271c0.636,0.06 1.305,0.11 2,0.152l0,22.119l38,0l0,-22l2,0l0,24z"/>
   <path fill="#ffffff" id="svg_3" d="m25,51l12,0l0,-8l-12,0l0,8zm2,-6l8,0l0,4l-8,0l0,-4z"/>
   <rect fill="#ffffff" id="svg_4" height="2" width="12" y="39" x="25"/>
   <rect fill="#ffffff" id="svg_5" height="2" width="12" y="35" x="25"/>
   <rect fill="#ffffff" id="svg_6" height="2" width="12" y="39" x="43"/>
   <rect fill="#ffffff" id="svg_7" height="2" width="12" y="43" x="43"/>
   <rect fill="#ffffff" id="svg_8" height="2" width="12" y="47" x="43"/>
   <rect fill="#ffffff" id="svg_9" height="2" width="11.752" transform="matrix(0.9102,-0.4141,0.4141,0.9102,-2.3271,8.0498) " y="8.392" x="11.527"/>
  </g>
  <path id="svg_12" d="m-508.5,21.45313" opacity="0.5" stroke-width="1.5" stroke="#000" fill="#fff"/>
 </g>
</svg>