<svg width="64" height="64" xmlns="http://www.w3.org/2000/svg">

 <g>
  <title>background</title>
  <rect fill="none" id="canvas_background" height="66" width="66" y="-1" x="-1"/>
 </g>
 <g>
  <title>Layer 1</title>
  <g id="svg_1">
   <polygon fill="#ffffff" id="svg_2" points="9.809129238128662,47.970418602228165 8.51612901687622,49.26341786980629 7.223128795623779,47.970418602228165 5.809129238128662,49.384420067071915 7.102128982543945,50.67741933465004 5.809129238128662,51.970418602228165 7.223128795623779,53.384420067071915 8.51612901687622,52.09142079949379 9.809129238128662,53.384420067071915 11.22312879562378,51.970418602228165 9.930128574371338,50.67741933465004 11.22312879562378,49.384420067071915 "/>
   <path fill="#ffffff" id="svg_3" d="m19.96113,49.67742l-2.998,0c-0.128,-0.277 -0.276,-0.546 -0.447,-0.803l-1.168,-1.752l-1.664,1.109l1.168,1.752c0.435,0.652 0.664,1.411 0.664,2.194c0,0.827 -0.195,1.655 -0.565,2.395l-1.329,2.658l1.789,0.895l0.884,-1.768c1.428,0.852 3.04,1.32 4.711,1.32c1.313,0 2.493,-0.729 3.08,-1.904c0.281,-0.563 0.43,-1.193 0.43,-1.822c0,-1.073 -0.435,-2.123 -1.194,-2.882c-0.897,-0.898 -2.091,-1.392 -3.361,-1.392zm2.336,5.202c-0.246,0.492 -0.741,0.798 -1.291,0.798c-1.384,0 -2.722,-0.401 -3.885,-1.145c0.255,-0.757 0.395,-1.556 0.395,-2.355c0,-0.168 -0.023,-0.333 -0.037,-0.5l2.482,0c0.735,0 1.427,0.286 1.947,0.806c0.386,0.386 0.608,0.922 0.608,1.468c0,0.32 -0.076,0.642 -0.219,0.928z"/>
   <path fill="#ffffff" id="svg_4" d="m59.58413,53.67742l3.691,-9.842l-4.064,1.742c0.855,-1.83 1.305,-3.825 1.305,-5.9c0,-3.729 -1.503,-7.28 -4.128,-9.899c2.029,-2.953 3.128,-6.441 3.128,-10.101l-2,0c0,2.774 -0.717,5.432 -2.043,7.784c-0.216,-2.79 -2.054,-5.204 -4.744,-6.101l-3.213,-1.07l0,3.679c0,0.61 0.087,1.204 0.235,1.775c-0.41,-0.036 -0.822,-0.067 -1.235,-0.067c-3.682,0 -7.027,1.44 -9.529,3.772l0.431,-3.018c4.714,-0.791 8.098,-3.471 8.098,-6.754c0,-1.803 -1.058,-3.508 -2.936,-4.784c0.615,-1.313 0.936,-2.753 0.936,-4.216c0,-5.514 -4.486,-10 -10,-10c-3.245,0 -6.263,1.573 -8.126,4.171c-1.134,-0.761 -2.474,-1.171 -3.874,-1.171c-3.86,0 -7,3.14 -7,7c0,1.058 0.236,2.088 0.688,3.025c-1.019,0.903 -1.789,2.068 -2.239,3.354c-0.095,-0.033 -0.195,-0.049 -0.291,-0.078l0.585,-2.918c0.171,-0.852 0.257,-1.725 0.257,-2.594c0,-0.671 -0.159,-1.343 -0.458,-1.941c-0.57,-1.14 -1.715,-1.848 -2.989,-1.848c-0.516,0 -1.033,0.122 -1.495,0.353l-0.135,0.067c-0.523,-0.859 -1.47,-1.42 -2.52,-1.42c-1.27,0 -2.394,0.81 -2.796,2.016c-0.335,1.006 -0.356,2.064 -0.077,3.063c-1.444,0.317 -2.53,1.603 -2.53,3.142c0,0.728 0.25,1.443 0.706,2.012l3.046,3.808c-0.477,0.964 -0.752,2.045 -0.752,3.192c0,0.591 0.073,1.181 0.215,1.749l4.588,18.767c-2.111,0.647 -4.095,1.695 -5.812,3.125c-1.265,1.053 -1.991,2.602 -1.991,4.249c0,1.478 0.576,2.867 1.621,3.912c3.846,3.846 8.961,5.965 14.401,5.965c5.974,0 11.913,-0.62 17.745,-1.818l0.823,0.823c1.287,1.287 2.998,1.995 4.818,1.995c2.597,0 4.932,-1.443 6.083,-3.745l1.214,-2.294l16.054,6.881l-3.691,-9.842zm-2.136,0l2.309,6.158l-9.983,-4.279l5.653,-1.72l-5.206,-2.231l9.536,-4.087l-2.309,6.159zm-7.932,-30.613l0.581,0.194c2.045,0.682 3.419,2.588 3.419,4.744l0,1.057l-1.236,-0.618c-1.705,-0.852 -2.764,-2.566 -2.764,-4.472l0,-0.905zm-3,4.613c0.747,0 1.488,0.083 2.214,0.219c0.659,0.97 1.555,1.784 2.655,2.334l1.442,0.721l-1.019,1.019l1.414,1.414l1.05,-1.05c0.311,-0.311 0.595,-0.641 0.88,-0.97c2.144,2.227 3.364,5.198 3.364,8.313c0,2.649 -0.847,5.146 -2.442,7.244l-8.416,3.607c-0.96,-0.402 -1.925,-0.789 -2.894,-1.156c-1.878,-2.385 -4.167,-4.35 -6.825,-5.827c-1.014,-0.563 -2.072,-1.037 -3.156,-1.438c-0.164,-0.796 -0.267,-1.608 -0.267,-2.43c0,-6.617 5.383,-12 12,-12zm-24.315,16.422l-3.567,-16.647c0.614,0.147 1.247,0.225 1.882,0.225c0.052,0 0.103,-0.008 0.155,-0.009l2.603,16.548c-0.358,-0.039 -0.715,-0.083 -1.073,-0.117zm3.139,0.379l-2.691,-17.106c1.095,-0.306 2.113,-0.837 2.984,-1.562l0.826,14.867l-0.943,0l0,3.824c-0.059,-0.008 -0.118,-0.015 -0.176,-0.023zm3.125,-3.74l-0.866,-15.589c0.87,0.444 1.843,0.795 2.883,1.05l-0.898,14.646c-0.372,-0.045 -0.745,-0.081 -1.119,-0.107zm-0.949,1.949c0.667,0.021 1.33,0.083 1.99,0.167l-0.026,2.279c-0.654,-0.12 -1.307,-0.247 -1.964,-0.351l0,-2.095zm3.986,0.522c0.68,0.156 1.353,0.34 2.014,0.563l0,2.199c-0.68,-0.158 -1.356,-0.332 -2.04,-0.473l0.026,-2.289zm4.014,1.36c0.491,0.225 0.978,0.461 1.451,0.724c1.346,0.748 2.582,1.641 3.716,2.651c-1.711,-0.553 -3.431,-1.064 -5.167,-1.51l0,-1.865zm-0.981,-12.098c-1.273,2.108 -2.019,4.569 -2.019,7.206c0,0.584 0.037,1.166 0.109,1.742c-0.35,-0.091 -0.704,-0.167 -1.057,-0.241l0.897,-14.622c0.668,0.078 1.353,0.121 2.051,0.121c0.288,0 0.569,-0.013 0.851,-0.026l-0.832,5.82zm-17.469,-17.693l0.802,-0.557l-0.538,-0.815c-0.532,-0.808 -0.814,-1.751 -0.814,-2.729c0,-2.757 2.243,-5 5,-5c1.291,0 2.508,0.487 3.427,1.371l0.939,0.903l0.63,-1.141c1.407,-2.549 4.091,-4.133 7.004,-4.133c4.411,0 8,3.589 8,8c0,1.435 -0.387,2.842 -1.119,4.067l-0.533,0.893l0.913,0.498c1.741,0.948 2.739,2.239 2.739,3.542c0,2.71 -4.122,5 -9,5c-2.916,0 -5.673,-0.815 -7.374,-2.18l-0.896,-0.718l-0.589,0.985c-1.09,1.824 -3.012,2.913 -5.141,2.913c-0.829,0 -1.622,-0.173 -2.369,-0.495l-0.654,-3.053c-0.367,-1.713 -1.382,-3.154 -2.737,-4.13c0.38,-1.297 1.199,-2.449 2.31,-3.221zm-5.797,-4.359c0.162,0.323 0.247,0.685 0.247,1.047c0,0.738 -0.073,1.479 -0.218,2.202l-0.604,3.012c-0.127,0.001 -0.251,0.012 -0.376,0.019l-1.311,-6.649l0.461,-0.231c0.642,-0.323 1.479,-0.044 1.801,0.6zm-6.248,-1.094c0.129,-0.388 0.49,-0.648 0.899,-0.648c0.45,0 0.84,0.32 0.928,0.759l1.509,7.656c-0.146,0.051 -0.293,0.101 -0.435,0.161l-2.725,-5.45c-0.388,-0.775 -0.451,-1.655 -0.176,-2.478zm-2.237,6.336c-0.173,-0.216 -0.268,-0.487 -0.268,-0.763c0,-0.674 0.547,-1.221 1.221,-1.221l0.161,0l2.307,4.613c-0.268,0.217 -0.516,0.456 -0.75,0.708l-2.671,-3.337zm2.888,9.517c-0.103,-0.414 -0.156,-0.841 -0.156,-1.268c0,-2.885 2.348,-5.233 5.233,-5.233c2.293,0 4.308,1.628 4.788,3.871l4.584,21.394c-2.158,-0.158 -4.325,-0.265 -6.506,-0.265l-0.411,0c-0.992,0 -1.977,0.091 -2.945,0.265l-4.587,-18.764zm-2.121,29.12c-0.667,-0.668 -1.035,-1.555 -1.035,-2.498c0,-1.051 0.463,-2.04 1.271,-2.713c2.639,-2.199 5.982,-3.41 9.417,-3.41l0.411,0c11.743,0 23.169,2.345 33.961,6.971l2.03,0.87l-7.965,2.424c-8.145,2.478 -16.59,3.735 -25.103,3.735c-4.906,0 -9.518,-1.911 -12.987,-5.379zm36.373,6.379c-1.242,0 -2.405,-0.476 -3.303,-1.327c1.88,-0.44 3.749,-0.932 5.602,-1.495l2.493,-0.759l-0.487,0.921c-0.821,1.64 -2.471,2.66 -4.305,2.66z"/>
   <path fill="#ffffff" id="svg_5" d="m38.51613,39.67742c0,-4.411 3.589,-8 8,-8l0,-2c-5.514,0 -10,4.486 -10,10l2,0z"/>
   <rect fill="#ffffff" id="svg_6" height="2" width="4.123" transform="matrix(0.9701,-0.2425,0.2425,0.9701,-6.3114,3.7315) " y="26.06968" x="9.54678"/>
   <rect fill="#ffffff" id="svg_7" height="2" width="4.123" transform="matrix(0.9701,-0.2425,0.2425,0.9701,-7.2517,4.0935) " y="30.06968" x="10.54678"/>
   <rect fill="#ffffff" id="svg_8" height="2" width="4.123" transform="matrix(0.9701,-0.2425,0.2425,0.9701,-8.192,4.4554) " y="34.06968" x="11.54678"/>
  </g>
 </g>
</svg>