<svg width="64" height="65" xmlns="http://www.w3.org/2000/svg">

 <g>
  <title>background</title>
  <rect fill="none" id="canvas_background" height="67" width="66" y="-1" x="-1"/>
 </g>
 <g>
  <title>Layer 1</title>
  <g id="svg_1">
   <path fill="#ffffff" id="svg_2" d="m61,19.48193l-17,0l0,-2l3,0l0,-2l-4,0a1,1 0 0 0 -1,1l0,3l-13,0l0,-2l3,0l0,-2l-4,0a1,1 0 0 0 -1,1l0,3l-2,0a9.011,9.011 0 0 0 -9,9l0,4a1,1 0 0 0 1,1l44,0a1,1 0 0 0 1,-1l0,-12a1,1 0 0 0 -1,-1zm-1,12l-42,0l0,-3a7.008,7.008 0 0 1 7,-7l35,0l0,10z"/>
   <path fill="#ffffff" id="svg_3" d="m24,24.48193l0,4a1,1 0 0 0 1,1l4,0a1,1 0 0 0 1,-1l0,-4a1,1 0 0 0 -1,-1l-4,0a1,1 0 0 0 -1,1zm2,1l2,0l0,2l-2,0l0,-2z"/>
   <path fill="#ffffff" id="svg_4" d="m33,29.48193l4,0a1,1 0 0 0 1,-1l0,-4a1,1 0 0 0 -1,-1l-4,0a1,1 0 0 0 -1,1l0,4a1,1 0 0 0 1,1zm1,-4l2,0l0,2l-2,0l0,-2z"/>
   <path fill="#ffffff" id="svg_5" d="m41,29.48193l4,0a1,1 0 0 0 1,-1l0,-4a1,1 0 0 0 -1,-1l-4,0a1,1 0 0 0 -1,1l0,4a1,1 0 0 0 1,1zm1,-4l2,0l0,2l-2,0l0,-2z"/>
   <path fill="#ffffff" id="svg_6" d="m49,29.48193l4,0a1,1 0 0 0 1,-1l0,-4a1,1 0 0 0 -1,-1l-4,0a1,1 0 0 0 -1,1l0,4a1,1 0 0 0 1,1zm1,-4l2,0l0,2l-2,0l0,-2z"/>
   <path fill="#ffffff" id="svg_7" d="m21,49.48193l6,0a1,1 0 0 0 1,-1l0,-6a1,1 0 0 0 -1,-1l-6,0a1,1 0 0 0 -1,1l0,6a1,1 0 0 0 1,1zm1,-6l4,0l0,4l-4,0l0,-4z"/>
   <path fill="#ffffff" id="svg_8" d="m11,49.48193l6,0a1,1 0 0 0 1,-1l0,-6a1,1 0 0 0 -1,-1l-6,0a1,1 0 0 0 -1,1l0,6a1,1 0 0 0 1,1zm1,-6l4,0l0,4l-4,0l0,-4z"/>
   <path fill="#ffffff" id="svg_9" d="m3,13.48193l7,0l0,6a1,1 0 0 0 1,1l3,0a1,1 0 0 0 0.814,-0.419l4.701,-6.581l9.485,0a1,1 0 0 0 1,-1a6.006,6.006 0 0 0 -6,-6l-14.382,0l-1.718,-3.447a1,1 0 0 0 -0.9,-0.553l-4,0a1,1 0 0 0 -1,1l0,9a1,1 0 0 0 1,1zm10.485,5l-1.485,0l0,-5l5.057,0l-3.572,5zm14.388,-7l-23.873,0l0,-3l20,0a4.007,4.007 0 0 1 3.873,3zm-23.873,-7l2.382,0l1,2l-3.382,0l0,-2z"/>
   <rect fill="#ffffff" id="svg_10" height="2" width="4" y="15.48193" x="34"/>
   <rect fill="#ffffff" id="svg_11" height="2" width="4" y="15.48193" x="49"/>
   <path fill="#ffffff" id="svg_12" d="m55,62.48193l0,-13.09a6,6 0 1 0 -2,0l0,13.09l2,0zm-5,-19a4,4 0 1 1 4,4a4,4 0 0 1 -4,-4z"/>
   <path fill="#ffffff" id="svg_13" d="m3,59.48193l2.142,0a3.981,3.981 0 0 0 7.716,0l16.284,0a3.981,3.981 0 0 0 7.716,0l4.142,0a1,1 0 0 0 1,-1l0,-20a1,1 0 0 0 -1,-1l-38,0a1,1 0 0 0 -1,1l0,20a1,1 0 0 0 1,1zm6,1a2,2 0 1 1 2,-2a2,2 0 0 1 -2,2zm24,0a2,2 0 1 1 2,-2a2,2 0 0 1 -2,2zm7,-13l-8,0l0,-4l8,0l0,4zm0,-8l0,2l-9,0a1,1 0 0 0 -1,1l0,6a1,1 0 0 0 1,1l9,0l0,2l-2,0l0,2l2,0l0,4l-3.142,0a3.981,3.981 0 0 0 -7.716,0l-16.284,0a3.981,3.981 0 0 0 -7.716,0l-1.142,0l0,-4l2,0l0,-2l-2,0l0,-2l3,0a1,1 0 0 0 1,-1l0,-6a1,1 0 0 0 -1,-1l-3,0l0,-2l36,0zm-36,4l2,0l0,4l-2,0l0,-4z"/>
  </g>
 </g>
</svg>