<?xml version="1.0" encoding="UTF-8" standalone="no"?>
<svg
   xmlns:dc="http://purl.org/dc/elements/1.1/"
   xmlns:cc="http://creativecommons.org/ns#"
   xmlns:rdf="http://www.w3.org/1999/02/22-rdf-syntax-ns#"
   xmlns:svg="http://www.w3.org/2000/svg"
   xmlns="http://www.w3.org/2000/svg"
   xmlns:sodipodi="http://sodipodi.sourceforge.net/DTD/sodipodi-0.dtd"
   xmlns:inkscape="http://www.inkscape.org/namespaces/inkscape"
   sodipodi:docname="Presentation V2.svg"
   inkscape:version="1.0 (4035a4f, 2020-05-01)"
   id="svg2262"
   version="1.1"
   viewBox="0 0 179.12291 145.547"
   height="145.547mm"
   width="179.12291mm"
   inkscape:export-filename="/Users/andrewwu/Documents/Princeton 2019-2020/PSCI &amp; PSCA/untitled folder/New Logos/Presentation V2.png"
   inkscape:export-xdpi="96"
   inkscape:export-ydpi="96">
  <defs
     id="defs2256">
    <inkscape:path-effect
       overflow_perspective="false"
       vertical_mirror="false"
       horizontal_mirror="false"
       deform_type="perspective"
       lpeversion="1"
       is_visible="true"
       id="path-effect5992"
       down_right_point="307.9077,366.66322"
       down_left_point="273.1577,346.59322"
       up_right_point="307.9677,347.09322"
       up_left_point="273.2077,327.02322"
       effect="perspective-envelope" />
    <inkscape:path-effect
       overflow_perspective="false"
       vertical_mirror="false"
       horizontal_mirror="false"
       deform_type="perspective"
       lpeversion="1"
       is_visible="true"
       id="path-effect3615"
       down_right_point="296.55729,324.35029"
       down_left_point="261.80729,304.28029"
       up_right_point="296.61729,304.78029"
       up_left_point="261.85729,284.71029"
       effect="perspective-envelope" />
    <inkscape:path-effect
       overflow_perspective="false"
       vertical_mirror="false"
       horizontal_mirror="false"
       deform_type="perspective"
       lpeversion="1"
       is_visible="true"
       id="path-effect3535"
       down_right_point="106.30606,161.14142"
       down_left_point="11.015688,106.14933"
       up_right_point="106.96399,-66.804335"
       up_left_point="11.673619,-121.82383"
       effect="perspective-envelope" />
    <inkscape:path-effect
       overflow_perspective="false"
       vertical_mirror="false"
       horizontal_mirror="false"
       deform_type="perspective"
       lpeversion="1"
       is_visible="true"
       id="path-effect3444"
       down_right_point="134.31778,287.05048"
       down_left_point="2.4737676,210.91759"
       up_right_point="134.97246,54.639243"
       up_left_point="3.1284471,-21.493652"
       effect="perspective-envelope" />
    <inkscape:path-effect
       overflow_perspective="false"
       vertical_mirror="false"
       horizontal_mirror="false"
       deform_type="perspective"
       lpeversion="1"
       is_visible="true"
       id="path-effect3442"
       down_right_point="511.70126,512"
       down_left_point="-0.00045615484,512"
       up_right_point="511.70126,0.00017683027"
       up_left_point="-0.00045615484,0.00017683027"
       effect="perspective-envelope" />
    <inkscape:path-effect
       overflow_perspective="false"
       vertical_mirror="false"
       horizontal_mirror="false"
       deform_type="perspective"
       lpeversion="1"
       is_visible="true"
       id="path-effect3440"
       down_right_point="511.70126,512"
       down_left_point="-0.00045615484,512"
       up_right_point="511.70126,0.00017683027"
       up_left_point="2.1,0.00017683027"
       effect="perspective-envelope" />
  </defs>
  <sodipodi:namedview
     inkscape:window-maximized="0"
     inkscape:window-y="23"
     inkscape:window-x="112"
     inkscape:window-height="790"
     inkscape:window-width="951"
     inkscape:object-nodes="true"
     showgrid="false"
     inkscape:document-rotation="0"
     inkscape:current-layer="g2734"
     inkscape:document-units="mm"
     inkscape:cy="228.56575"
     inkscape:cx="324.8789"
     inkscape:zoom="1.1771641"
     inkscape:pageshadow="2"
     inkscape:pageopacity="0.0"
     borderopacity="1.0"
     bordercolor="#666666"
     pagecolor="#ffffff"
     id="base" />
  <metadata
     id="metadata2259">
    <rdf:RDF>
      <cc:Work
         rdf:about="">
        <dc:format>image/svg+xml</dc:format>
        <dc:type
           rdf:resource="http://purl.org/dc/dcmitype/StillImage" />
        <dc:title />
      </cc:Work>
    </rdf:RDF>
  </metadata>
  <g
     transform="translate(293.6686,-39.107455)"
     id="layer1"
     inkscape:groupmode="layer"
     inkscape:label="Layer 1">
    <g
       transform="matrix(0.26458333,0,0,0.26458333,-293.6686,39.107455)"
       id="g2734">
      <path
         style="fill:#e5ffd5"
         d="M 857.3,177.35 H 403.42 a 19.65,19.65 0 0 0 -6.19,1 h 8.68 a 19.25,19.25 0 0 1 19.25,19.25 v 16.15 A 19.25,19.25 0 0 1 412,232 H 857.3 A 19.7,19.7 0 0 0 877,212.3 v -15.25 a 19.7,19.7 0 0 0 -19.7,-19.7 z"
         transform="translate(-200,120.32)"
         fill="#e1edf9"
         id="path2499" />
      <rect
         style="fill:#e5ffd5"
         x="271"
         y="229.75"
         width="524"
         height="54.32"
         rx="22.01"
         ry="22.01"
         transform="rotate(180,433,317.075)"
         fill="#e1edf9"
         id="rect2501" />
      <rect
         style="fill:#e5ffd5"
         x="200"
         y="128.17"
         width="543"
         height="54.32"
         rx="21.32"
         ry="21.32"
         transform="rotate(180,371.5,215.495)"
         fill="#e1edf9"
         id="rect2503" />
      <rect
         style="fill:#e5ffd5"
         x="345"
         y="279.75"
         width="501"
         height="54.32"
         rx="21.18"
         ry="21.18"
         transform="rotate(180,495.5,367.075)"
         fill="#e1edf9"
         id="rect2505" />
      <g
         style="isolation:isolate"
         id="g2513">
        <polygon
           points="297.16,274.91 239.37,308.5 230.86,303.58 288.65,270 "
           fill="#707070"
           id="polygon2507" />
        <polygon
           points="297.16,274.91 297.14,283.06 239.35,316.65 239.37,308.5 "
           fill="#646464"
           id="polygon2509" />
        <polygon
           points="239.37,308.5 239.35,316.65 230.84,311.74 230.86,303.58 "
           fill="#464646"
           id="polygon2511" />
      </g>
      <g
         style="isolation:isolate"
         id="g2521">
        <polygon
           points="475.17,378.91 417.37,412.49 408.86,407.58 466.65,374 "
           fill="#707070"
           id="polygon2515" />
        <polygon
           points="475.17,378.91 475.14,387.06 417.35,420.64 417.37,412.49 "
           fill="#646464"
           id="polygon2517" />
        <polygon
           points="417.37,412.49 417.35,420.64 408.84,415.73 408.86,407.58 "
           fill="#464646"
           id="polygon2519" />
      </g>
      <g
         style="isolation:isolate"
         id="g2529">
        <polygon
           points="441.29,313.82 441.05,398.61 434.67,394.92 434.91,310.14 "
           fill="#686868"
           id="polygon2523" />
        <polygon
           points="441.29,313.82 448.34,309.73 448.1,394.51 441.05,398.61 "
           fill="#4e4e4e"
           id="polygon2525" />
        <polygon
           points="434.91,310.14 441.95,306.04 448.34,309.73 441.29,313.82 "
           fill="#6d6d6d"
           id="polygon2527" />
      </g>
      <g
         style="isolation:isolate"
         id="g2537">
        <polygon
           points="264.29,209.82 264.05,294.6 257.66,290.92 257.9,206.13 "
           fill="#686868"
           id="polygon2531" />
        <polygon
           points="264.29,209.82 271.33,205.73 271.1,290.51 264.05,294.6 "
           fill="#4e4e4e"
           id="polygon2533" />
        <polygon
           points="257.9,206.13 264.95,202.04 271.33,205.73 264.29,209.82 "
           fill="#6d6d6d"
           id="polygon2535" />
      </g>
      <g
         style="isolation:isolate"
         id="g2545">
        <polygon
           points="478.99,149.91 478.45,340.65 229.45,196.89 229.99,6.14 "
           fill="#c6c6c6"
           id="polygon2539" />
        <polygon
           points="478.99,149.91 489.56,143.76 489.02,334.51 478.45,340.65 "
           fill="#8e8e8e"
           id="polygon2541" />
        <polygon
           points="229.99,6.14 240.56,0 489.56,143.76 478.99,149.91 "
           fill="#dcdcdc"
           id="polygon2543" />
      </g>
      <polygon
         style="fill:#80e5ff"
         points="308.37,89.82 308.06,199.87 245.63,163.82 245.94,53.77 "
         fill="#53e5e6"
         id="polygon2547" />
      <polygon
         style="fill:#b3ff80"
         points="352,114.78 351.76,197.93 317,177.87 317.24,94.71 "
         fill="#3030ee"
         id="polygon2549" />
      <polygon
         style="fill:#aaeeff"
         points="350.91,207.57 350.85,227.14 316.1,207.07 316.15,187.5 "
         fill="#ef5673"
         id="polygon2551" />
      <polygon
         points="464.67,182.73 464.65,189.26 365.34,131.92 365.35,125.4 "
         fill="#9b9b9b"
         id="polygon2553" />
      <polygon
         points="464.67,278.73 464.65,285.25 365.34,227.91 365.35,221.39 "
         fill="#9b9b9b"
         id="polygon2555" />
      <polygon
         points="464.67,242.73 464.65,249.25 365.34,191.91 365.35,185.39 "
         fill="#9b9b9b"
         id="polygon2557" />
      <polygon
         points="464.67,227.73 464.65,234.26 365.34,176.92 365.35,170.4 "
         fill="#9b9b9b"
         id="polygon2559" />
      <polygon
         points="464.67,212.73 464.65,219.25 365.34,161.91 365.35,155.39 "
         fill="#9b9b9b"
         id="polygon2561" />
      <polygon
         points="464.67,197.73 464.65,204.25 365.34,146.91 365.35,140.39 "
         fill="#9b9b9b"
         id="polygon2563" />
      <polygon
         points="464.67,293.73 464.65,300.25 365.34,242.91 365.35,236.39 "
         fill="#9b9b9b"
         id="polygon2565" />
      <g
         id="_Group_"
         data-name="&lt;Group&gt;">
        <g
           id="_Group_2"
           data-name="&lt;Group&gt;">
          <g
             id="_Group_3"
             data-name="&lt;Group&gt;">
            <path
               id="_Path_"
               data-name="&lt;Path&gt;"
               d="m 365.78,148.15 c -0.09,1.32 0.59,2.81 -4,5.54 -4.59,2.73 -7.45,3.26 -9.74,4.62 -2.29,1.36 -4.2,6.06 -12.92,5.82 -8.72,-0.24 -12.87,-4.58 -11.69,-8.58 1.18,-4 5.8,-7.33 11.18,-9 5.38,-1.67 14.45,-9.83 15,-13.09 l 10.73,4.48 c 0.26,2.14 1,5.31 1.3,7.85 a 12,12 0 0 1 0.14,2.36 z"
               transform="translate(-200,120.32)"
               fill="#fbfbfb" />
            <path
               id="_Path_2"
               data-name="&lt;Path&gt;"
               d="m 347.88,157 c 0,0 -0.55,-9.2 -9.83,-10.32 -9.28,-1.12 -10.61,8.84 -10.61,8.84 -1.02,5.17 17.45,11.59 20.44,1.48 z"
               transform="translate(-200,120.32)"
               fill="#e1e9f5" />
            <path
               id="_Path_3"
               data-name="&lt;Path&gt;"
               d="m 365.78,148.15 c -0.09,1.32 0.59,2.81 -4,5.54 -4.59,2.73 -7.45,3.26 -9.74,4.62 -2.29,1.36 -4.2,6.06 -12.92,5.82 -8.72,-0.24 -12.87,-4.58 -11.69,-8.58 7.07,7.54 16.22,5.37 19.67,2.14 3.45,-3.23 8.49,-4.83 12.31,-6.91 a 23.47,23.47 0 0 0 6.27,-5 12,12 0 0 1 0.1,2.37 z"
               transform="translate(-200,120.32)"
               fill="#3a3e5f" />
          </g>
          <g
             id="_Group_4"
             data-name="&lt;Group&gt;">
            <path
               id="_Path_4"
               data-name="&lt;Path&gt;"
               d="m 328.22,126 c -0.09,1.32 0.59,2.8 -4,5.54 -4.59,2.74 -7.45,3.26 -9.74,4.62 -2.29,1.36 -4.2,6.06 -12.92,5.82 -8.72,-0.24 -12.88,-4.57 -11.7,-8.58 1.18,-4.01 5.8,-7.33 11.18,-9 5.38,-1.67 14.45,-9.83 15,-13.09 l 10.73,4.48 c 0.26,2.15 1,5.3 1.3,7.85 a 11.83,11.83 0 0 1 0.15,2.36 z"
               transform="translate(-200,120.32)"
               fill="#fbfbfb" />
            <path
               id="_Path_5"
               data-name="&lt;Path&gt;"
               d="m 310.32,134.9 c 0,0 -0.55,-9.2 -9.83,-10.32 -9.28,-1.12 -10.61,8.84 -10.61,8.84 -1.02,5.14 17.45,11.58 20.44,1.48 z"
               transform="translate(-200,120.32)"
               fill="#e1e9f5" />
            <path
               id="_Path_6"
               data-name="&lt;Path&gt;"
               d="m 328.22,126 c -0.09,1.32 0.59,2.8 -4,5.54 -4.59,2.74 -7.45,3.26 -9.74,4.62 -2.29,1.36 -4.2,6.06 -12.92,5.82 -8.72,-0.24 -12.88,-4.57 -11.7,-8.58 7.07,7.55 16.22,5.38 19.67,2.15 3.45,-3.23 8.49,-4.83 12.31,-6.91 a 23.43,23.43 0 0 0 6.27,-5 11.83,11.83 0 0 1 0.11,2.36 z"
               transform="translate(-200,120.32)"
               fill="#3a3e5f" />
          </g>
          <path
             id="_Path_7"
             data-name="&lt;Path&gt;"
             d="m 318.45,14.84 c -3.83,25.56 -3.26,65.23 -2.76,101.28 a 11,11 0 0 0 11.13,-0.33 c 0,0 2.31,-12.89 4.55,-23.87 2.24,-10.98 -0.73,-17.61 -0.73,-17.61 0,0 4,-19.47 5.64,-26.64 1.64,-7.17 3.52,-7.2 4.79,-0.2 1.27,7 6,39.77 7.08,46.34 1.26,7.62 4.56,33.53 6.2,44.53 0,0 5.44,3.27 10,-0.42 -0.07,-1.72 3.56,-27.25 2.8,-38.43 -0.76,-11.18 -5,-15.06 -5,-15.06 0,0 2.67,-47.22 -0.75,-64.36 z"
             transform="translate(-200,120.32)"
             fill="#314986" />
          <g
             id="_Group_5"
             data-name="&lt;Group&gt;">
            <path
               id="_Path_8"
               data-name="&lt;Path&gt;"
               d="m 337.63,-36.25 c 1.73,-6.25 -8.06,-13.52 -13.27,-0.6 -5.21,12.92 -11.36,30.13 -12.92,32.85 -1.56,2.72 -12.71,15.75 -20.31,17.65 -5.74,-0.41 -10.82,-2.24 -13.35,-0.59 -0.92,0.6 1.75,2.92 4.57,3.81 2.82,0.89 0.66,2.48 -3.46,4.15 -4.12,1.67 -10.45,1.5 -7.61,7.71 2.84,6.21 13.66,3.54 20.27,0 6.61,-3.54 25.19,-16.55 30.51,-24.4 5.32,-7.85 14.32,-36.07 15.57,-40.58 z"
               transform="translate(-200,120.32)"
               fill="#f8c3b4" />
          </g>
          <path
             id="_Path_9"
             data-name="&lt;Path&gt;"
             d="m 321.81,-68.07 c 0,0 0.48,12.83 -5.61,16.27 a 19.4,19.4 0 0 0 19.31,5.88 c 12.12,-3 7.17,-30.93 -0.54,-32.11 -7.71,-1.18 -12.15,0.89 -13.16,9.96 z"
             transform="translate(-200,120.32)"
             fill="#c67a54" />
          <path
             id="_Path_10"
             data-name="&lt;Path&gt;"
             d="m 347.57,-41.43 c 7.93,3.81 12.74,3.44 10.19,20 -0.51,3.31 -4.64,8.88 -4.78,13.83 -0.32,10.78 6.56,11.06 8.5,27.64 0,0 -14.9,10.64 -27.66,7.89 -12.76,-2.75 -15.4,-11.77 -15.4,-11.77 1,-10.49 3.21,-10.9 4.67,-18.08 1.07,-5.27 -0.75,-6.63 -1.67,-10.64 -6.66,-4.71 -10.53,-10.4 -3.36,-19.79 10.53,-13.78 16.16,-14.29 18.67,-13.47 7.51,2.48 7.45,2.76 10.84,4.39 z"
             transform="translate(-200,120.32)"
             fill="#ed487d" />
          <g
             id="_Group_6"
             data-name="&lt;Group&gt;">
            <path
               id="_Path_11"
               data-name="&lt;Path&gt;"
               d="M 347.09,-53.38 V -41 c 0,0 -7.24,6.47 -11.58,1.79 v -11.53 z"
               transform="translate(-200,120.32)"
               fill="#f8c3b4" />
            <path
               id="_Path_12"
               data-name="&lt;Path&gt;"
               d="m 347.09,-53.38 v 4.81 a 11.44,11.44 0 0 1 -11.53,0.74 l -0.05,-2.91 z"
               transform="translate(-200,120.32)"
               fill="#efafa0" />
          </g>
          <g
             id="_Group_7"
             data-name="&lt;Group&gt;">
            <path
               id="_Path_13"
               data-name="&lt;Path&gt;"
               d="m 325.17,-90 a 8.46,8.46 0 0 0 -5.73,6.66 c -1,5.4 2.36,7.66 2.36,7.66 0,0 6.45,-9.57 3.37,-14.32 z"
               transform="translate(-200,120.32)"
               fill="#c67a54" />
            <path
               id="_Path_14"
               data-name="&lt;Path&gt;"
               d="m 338.61,-50.25 v 0 a 16.8,16.8 0 0 0 16.8,-16.8 v -9.33 a 16.8,16.8 0 0 0 -16.8,-16.8 v 0 a 16.8,16.8 0 0 0 -16.8,16.8 v 9.33 a 16.8,16.8 0 0 0 16.8,16.8 z"
               transform="translate(-200,120.32)"
               fill="#f8c3b4" />
            <g
               id="_Group_8"
               data-name="&lt;Group&gt;">
              <path
                 id="_Path_15"
                 data-name="&lt;Path&gt;"
                 d="m 335.56,-69.34 v 0 a 2,2 0 0 1 -2,-2 v -1.32 a 2,2 0 0 1 2,-2 v 0 a 2,2 0 0 1 2,2 v 1.32 a 2,2 0 0 1 -2,2 z"
                 transform="translate(-200,120.32)"
                 fill="#3a3e5f" />
              <path
                 id="_Path_16"
                 data-name="&lt;Path&gt;"
                 d="m 323.82,-70.71 v 0 a 2,2 0 0 1 -2,-2 V -74 a 2,2 0 0 1 2,-2 v 0 a 2,2 0 0 1 2,2 v 1.32 a 2,2 0 0 1 -2,1.97 z"
                 transform="translate(-200,120.32)"
                 fill="#3a3e5f" />
              <path
                 id="_Path_17"
                 data-name="&lt;Path&gt;"
                 d="m 329.61,-61.69 v 0 a 1.78,1.78 0 0 1 -1.78,-1.78 v -9.21 a 1.78,1.78 0 0 1 1.78,-1.78 v 0 a 1.78,1.78 0 0 1 1.78,1.78 v 9.21 a 1.78,1.78 0 0 1 -1.78,1.78 z"
                 transform="translate(-200,120.32)"
                 fill="#efafa0" />
            </g>
            <path
               id="_Path_18"
               data-name="&lt;Path&gt;"
               d="m 331.38,-95.88 c -2.35,0.7 -8.85,4.28 -6.79,10.29 8.6,-4.78 17.74,-0.29 17.74,11.65 a 7.94,7.94 0 0 0 0.48,5.87 c 0,0 2.48,-0.82 3.5,-5.31 a 51.22,51.22 0 0 1 3,9.15 c 0.23,5.47 -0.26,9.42 -1.37,11.51 l -0.82,2.46 c 0,0 9.14,-5.25 12.58,-13.13 3.44,-7.88 1.82,-21.46 -3,-27 -3.89,-4.41 -13.09,-9.15 -25.32,-5.49 z"
               transform="translate(-200,120.32)"
               fill="#c67a54" />
            <path
               id="_Path_19"
               data-name="&lt;Path&gt;"
               d="m 361,-79.53 c 1,5.53 2.09,26.9 0.71,31.7 -1.38,4.8 -14.71,10 -22,3.21 0,0 8.64,-3.21 7.61,-19.8 z"
               transform="translate(-200,120.32)"
               fill="#c67a54" />
            <ellipse
               id="_Path_20"
               data-name="&lt;Path&gt;"
               cx="349.28"
               cy="-69.339996"
               rx="5.1199999"
               ry="4.71"
               transform="rotate(-75.38,327.13229,120.26584)"
               fill="#f8c3b4" />
          </g>
          <g
             id="_Group_9"
             data-name="&lt;Group&gt;">
            <path
               id="_Path_21"
               data-name="&lt;Path&gt;"
               d="m 361.21,-32.73 c -2.67,-5.9 -14.84,-5.22 -10.58,8 4.26,13.22 10.58,30.43 11.13,33.57 0.55,3.14 0.31,20.23 -4.31,26.56 -4.67,3.36 -9.74,5.2 -10.63,8.09 -0.32,1.05 3.22,1.12 6,0 2.78,-1.12 2.1,1.48 0,5.4 -2.1,3.92 -7.07,7.84 -0.91,10.8 6.16,2.96 12.76,-6 15.56,-13 2.8,-7 8.75,-28.84 7.82,-38.28 -0.93,-9.44 -12.15,-36.87 -14.08,-41.14 z"
               transform="translate(-200,120.32)"
               fill="#f8c3b4" />
            <path
               id="_Path_22"
               data-name="&lt;Path&gt;"
               d="m 352.51,-37.94 c -5.3,1.7 -6.44,7 -3.9,16.57 a 124.48,124.48 0 0 0 5.27,15.91 c 0,0 11.24,2.36 17.6,-6.85 0,0 -4,-12.22 -6.91,-18.89 -2.91,-6.67 -7.06,-8.34 -12.06,-6.74 z"
               transform="translate(-200,120.32)"
               fill="#d74379" />
          </g>
          <path
             id="_Path_23"
             data-name="&lt;Path&gt;"
             d="m 324.82,-89.31 c 0,0 -4,5.27 -1,14.62 l 8.45,0.23 c 0,0 0,-8.72 1.32,-10.57 l 1.1,10.57 h 6.15 c 0,0 1.09,-7.32 -2.19,-12.8 -3.28,-5.48 -13.83,-2.05 -13.83,-2.05 z"
             transform="translate(-200,120.32)"
             fill="#c67a54" />
        </g>
      </g>
      <g
         id="_Group_10"
         data-name="&lt;Group&gt;">
        <g
           id="_Group_11"
           data-name="&lt;Group&gt;">
          <g
             id="_Group_12"
             data-name="&lt;Group&gt;">
            <g
               id="_Group_13"
               data-name="&lt;Group&gt;">
              <path
                 id="_Path_24"
                 data-name="&lt;Path&gt;"
                 d="m 701.8,183.8 a 3.55,3.55 0 0 0 -3.28,4.36 c 0.49,1.57 4.32,-0.46 6.83,0.22 2.51,0.68 4.1,2.46 8.71,1.91 2.76,5 11.39,17.35 13.62,20.79 2.23,3.44 16.84,26 25.52,32.57 9.36,7.12 15.61,-3.2 8,-12.27 -6.1,-7.24 -17.48,-21.28 -22.71,-27.81 -3.8,-8 -14.11,-16.11 -16.83,-20.12 -3.24,-4.79 1.58,-10.54 -5.38,-13.72 -6.96,-3.18 -9.1,-0.64 -10.79,1.62 0,0 -2.69,-3.51 -5,-6.76 -2.31,-3.25 -5.91,0 -4.18,3.35 1.73,3.35 7.29,10.86 8.08,12.43 0.79,1.57 1.47,3.3 -2.59,3.43 z"
                 transform="translate(-200,120.32)"
                 fill="#8c6e6d" />
              <path
                 id="_Path_25"
                 data-name="&lt;Path&gt;"
                 d="M 723.07,170"
                 transform="translate(-200,120.32)"
                 fill="none"
                 stroke="#000000"
                 stroke-miterlimit="10"
                 stroke-width="0.78" />
            </g>
            <path
               id="_Path_26"
               data-name="&lt;Path&gt;"
               d="m 760.62,247.75 c 4.53,-2.14 8.79,-7.36 3.22,-15.63 a 162,162 0 0 0 -10.79,-14.26 c 0,0 -8.94,-4.22 -17.45,6.24 0,0 6.89,14.19 12.92,19.28 6.03,5.09 10.66,5.05 12.1,4.37 z"
               transform="translate(-200,120.32)"
               fill="#63859e" />
          </g>
          <g
             id="_Group_14"
             data-name="&lt;Group&gt;">
            <path
               id="_Path_27"
               data-name="&lt;Path&gt;"
               d="m 796.67,413.79 c -0.09,1.32 0.59,2.81 -4,5.54 -4.59,2.73 -7.45,3.25 -9.74,4.62 -2.29,1.37 -4.2,6.06 -12.92,5.82 -8.72,-0.24 -12.87,-4.57 -11.69,-8.58 1.18,-4.01 5.8,-7.33 11.18,-9 5.38,-1.67 14.45,-9.83 15,-13.09 l 10.73,4.48 c 0.26,2.15 1,5.31 1.3,7.85 a 12,12 0 0 1 0.14,2.36 z"
               transform="translate(-200,120.32)"
               fill="#fbfbfb" />
            <path
               id="_Path_28"
               data-name="&lt;Path&gt;"
               d="m 778.77,422.67 c 0,0 -0.55,-9.2 -9.83,-10.32 -9.28,-1.12 -10.61,8.84 -10.61,8.84 -1.03,5.14 17.44,11.56 20.44,1.48 z"
               transform="translate(-200,120.32)"
               fill="#e1e9f5" />
            <path
               id="_Path_29"
               data-name="&lt;Path&gt;"
               d="m 796.67,413.79 c -0.09,1.32 0.59,2.81 -4,5.54 -4.59,2.73 -7.45,3.25 -9.74,4.62 -2.29,1.37 -4.2,6.06 -12.92,5.82 -8.72,-0.24 -12.87,-4.57 -11.69,-8.58 7.07,7.54 16.22,5.38 19.67,2.15 3.45,-3.23 8.49,-4.83 12.31,-6.91 a 23.41,23.41 0 0 0 6.27,-5 12,12 0 0 1 0.1,2.36 z"
               transform="translate(-200,120.32)"
               fill="#3a3e5f" />
          </g>
          <g
             id="_Group_15"
             data-name="&lt;Group&gt;">
            <path
               id="_Path_30"
               data-name="&lt;Path&gt;"
               d="m 759.1,391.66 c -0.09,1.32 0.59,2.81 -4,5.54 -4.59,2.73 -7.45,3.25 -9.74,4.62 -2.29,1.37 -4.2,6.06 -12.92,5.82 -8.72,-0.24 -12.88,-4.57 -11.7,-8.58 1.18,-4.01 5.8,-7.33 11.18,-9 5.38,-1.67 14.45,-9.83 15,-13.09 l 10.73,4.48 c 0.26,2.15 1,5.31 1.3,7.85 a 11.8,11.8 0 0 1 0.15,2.36 z"
               transform="translate(-200,120.32)"
               fill="#fbfbfb" />
            <path
               id="_Path_31"
               data-name="&lt;Path&gt;"
               d="m 741.2,400.54 c 0,0 -0.55,-9.2 -9.83,-10.32 -9.28,-1.12 -10.61,8.84 -10.61,8.84 -1.02,5.14 17.45,11.56 20.44,1.48 z"
               transform="translate(-200,120.32)"
               fill="#e1e9f5" />
            <path
               id="_Path_32"
               data-name="&lt;Path&gt;"
               d="m 759.1,391.66 c -0.09,1.32 0.59,2.81 -4,5.54 -4.59,2.73 -7.45,3.25 -9.74,4.62 -2.29,1.37 -4.2,6.06 -12.92,5.82 -8.72,-0.24 -12.88,-4.57 -11.7,-8.58 7.07,7.55 16.22,5.38 19.67,2.15 3.45,-3.23 8.49,-4.83 12.31,-6.91 a 23.39,23.39 0 0 0 6.27,-5 11.8,11.8 0 0 1 0.11,2.36 z"
               transform="translate(-200,120.32)"
               fill="#3a3e5f" />
          </g>
          <path
             id="_Path_33"
             data-name="&lt;Path&gt;"
             d="m 747.63,282.05 c -2,26 -1.56,63.65 -1.05,99.71 a 11,11 0 0 0 11.13,-0.33 c 0,0 2.31,-12.88 4.55,-23.87 2.24,-10.99 1,-17.43 1,-17.43 0,0 1.15,-20.53 2.8,-27.71 1.65,-7.18 3.52,-7.2 4.79,-0.2 1.27,7 7.13,40.66 8.21,47.23 1.26,7.62 4.56,33.53 6.2,44.53 0,0 5.45,3.27 10,-0.41 -0.07,-1.73 3.56,-27.25 2.8,-38.43 -0.76,-11.18 -2.79,-16.71 -2.79,-16.71 0,0 0.5,-45.56 -2.92,-62.71 z"
             transform="translate(-200,120.32)"
             fill="#3a3e5f" />
          <path
             id="_Path_34"
             data-name="&lt;Path&gt;"
             d="m 780.16,225.86 c 8.72,4.88 10.88,6.38 10.94,21.71 0,2.19 -1.26,13.42 -1.94,19.21 1.31,5.53 2.2,12.5 3.2,18.92 0,0 -14.9,10.64 -27.66,7.89 -12.76,-2.75 -17.06,-11.54 -17.06,-11.54 0.69,-7.08 -0.19,-42.09 5.06,-58.07 2.53,-7.7 13.36,-4.66 14.91,-4.14 7.5,2.5 9.27,4.16 12.55,6.02 z"
             transform="translate(-200,120.32)"
             fill="#86a2bb" />
          <path
             id="_Compound_Path_"
             data-name="&lt;Compound Path&gt;"
             d="m 778,224.66 2.93,1.62 c 0,0 -7.17,6 -12.44,5.29 -3.89,-0.53 -5.34,-4.81 -5.34,-4.81 l 3.28,-2.77 z"
             transform="translate(-200,120.32)"
             fill="#63859e" />
          <g
             id="_Group_16"
             data-name="&lt;Group&gt;">
            <path
               id="_Path_35"
               data-name="&lt;Path&gt;"
               d="m 778,212.25 v 12.4 c 0,0 -7.24,6.47 -11.58,1.79 v -11.55 z"
               transform="translate(-200,120.32)"
               fill="#8c6e6d" />
            <path
               id="_Path_36"
               data-name="&lt;Path&gt;"
               d="m 778,212.25 v 4.81 a 16.63,16.63 0 0 1 -9.31,2.83 11.82,11.82 0 0 1 -2.26,-0.19 v -4.81 z"
               transform="translate(-200,120.32)"
               fill="#725e5e" />
          </g>
          <g
             id="_Group_17"
             data-name="&lt;Group&gt;">
            <path
               id="_Path_37"
               data-name="&lt;Path&gt;"
               d="m 769.49,215.38 v 0 a 16.8,16.8 0 0 0 16.8,-16.8 v -9.33 a 16.8,16.8 0 0 0 -16.8,-16.8 v 0 a 16.8,16.8 0 0 0 -16.8,16.8 v 9.33 a 16.8,16.8 0 0 0 16.8,16.8 z"
               transform="translate(-200,120.32)"
               fill="#8c6e6d" />
            <g
               id="_Group_18"
               data-name="&lt;Group&gt;">
              <path
                 id="_Path_38"
                 data-name="&lt;Path&gt;"
                 d="m 767.48,197.1 v 0 a 2,2 0 0 1 -2,-2 v -1.32 a 2,2 0 0 1 2,-2 v 0 a 2,2 0 0 1 2,2 v 1.32 a 2,2 0 0 1 -2,2 z"
                 transform="translate(-200,120.32)"
                 fill="#3a3e5f" />
              <path
                 id="_Path_39"
                 data-name="&lt;Path&gt;"
                 d="m 755.74,195.73 v 0 a 2,2 0 0 1 -2,-2 v -1.32 a 2,2 0 0 1 2,-2 v 0 a 2,2 0 0 1 2,2 v 1.32 a 2,2 0 0 1 -2,2 z"
                 transform="translate(-200,120.32)"
                 fill="#3a3e5f" />
              <path
                 id="_Path_40"
                 data-name="&lt;Path&gt;"
                 d="m 761.53,204.74 v 0 a 1.78,1.78 0 0 1 -1.78,-1.78 v -9.21 a 1.78,1.78 0 0 1 1.78,-1.78 v 0 a 1.78,1.78 0 0 1 1.78,1.78 V 203 a 1.78,1.78 0 0 1 -1.78,1.74 z"
                 transform="translate(-200,120.32)"
                 fill="#725e5e" />
            </g>
            <path
               id="_Path_41"
               data-name="&lt;Path&gt;"
               d="m 776.45,193.06 c 0,0 -1.28,5.08 -3.17,6 0,0 -2.21,-6.11 0,-9.64 a 25.7,25.7 0 0 1 -3.79,-8.25 c 0,0 -2.76,5 -8,4.86 -5.24,-0.14 -2.69,-6.32 -2.69,-6.32 0,0 -3.61,4.11 -8.29,2 -4.68,-2.11 -3.64,-9.37 1,-11 4.64,-1.63 6.22,0.08 6.22,0.08 -2,-3.82 0.87,-8 5.19,-8.64 4.32,-0.64 9.73,3 9.24,5.26 1.66,-4.7 7.27,-4 10.45,-2.24 5.41,3 3.66,8.95 3.66,8.95 0,0 7.1,0.47 5.65,19.51 -0.82,10.86 -0.92,19.19 -14,22 v -2.43 c 4,-4.52 3,-11.84 3,-11.84 z"
               transform="translate(-200,120.32)"
               fill="#3a3e5f" />
            <ellipse
               id="_Path_42"
               data-name="&lt;Path&gt;"
               cx="780.15997"
               cy="196.3"
               rx="4.7199998"
               ry="5.1199999"
               transform="rotate(-9,1444.5624,1527.0609)"
               fill="#7f6666" />
          </g>
          <path
             id="_Path_43"
             data-name="&lt;Path&gt;"
             d="m 793.8,233.48 c -2.74,-6.05 -15.2,-5.35 -10.84,8.23 4.36,13.58 10.84,31.15 11.4,34.35 0.56,3.2 0.32,20.73 -4.41,27.21 -4.78,3.44 -10,5.33 -10.89,8.29 -0.33,1.08 3.3,1.15 6.1,0 2.8,-1.15 2.15,1.52 0,5.53 -2.15,4.01 -7.24,8 -0.93,11.06 6.31,3.06 13.07,-6.18 15.94,-13.32 2.87,-7.14 9,-29.54 8,-39.21 -1,-9.67 -12.39,-37.77 -14.37,-42.14 z"
             transform="translate(-200,120.32)"
             fill="#8c6e6d" />
          <path
             id="_Path_44"
             data-name="&lt;Path&gt;"
             d="m 784.89,228.15 c -5.43,1.74 -6.6,7.15 -4,17 a 127.47,127.47 0 0 0 5.4,16.3 c 0,0 11.52,2.41 18,-7 0,0 -4.13,-12.52 -7.07,-19.35 -2.94,-6.83 -7.22,-8.6 -12.33,-6.95 z"
             transform="translate(-200,120.32)"
             fill="#63859e" />
        </g>
      </g>
      <g
         inkscape:path-effect="#path-effect3535"
         transform="matrix(0.27919779,0,0,0.27919779,317.87306,140.68528)"
         id="g3512">
        <path
           inkscape:original-d="M 384.533,447.733 H 272.067 c -8.284,0 -15,-6.716 -15,-15 0,-8.284 6.716,-15 15,-15 h 112.466 c 4.575,0 8.875,-1.782 12.11,-5.018 3.242,-3.237 5.023,-7.538 5.023,-12.116 V 239.934 c 0,-8.284 6.716,-15 15,-15 8.284,0 15,6.716 15,15 V 400.6 c 0,12.6 -4.906,24.438 -13.815,33.335 -8.893,8.895 -20.728,13.798 -33.318,13.798 z"
           d="M 82.667388,118.83895 61.7366,106.75904 c -1.54176,-0.88981 -2.783069,-4.60138 -2.772424,-8.289688 0.01065,-3.68831 1.269215,-5.957088 2.810975,-5.067257 l 20.930788,12.080275 c 0.851419,0.49139 1.653949,0.15988 2.260147,-0.93338 0.607501,-1.09295 0.944474,-2.81654 0.950357,-4.854743 l 0.206458,-71.530949 c 0.01064,-3.688187 1.269129,-5.956779 2.810785,-5.066841 1.541649,0.889935 2.782859,4.601483 2.772214,8.289644 l -0.206459,71.530889 c -0.01619,5.60971 -0.944404,10.35322 -2.613797,13.35742 -1.66642,3.00504 -3.875228,3.91679 -6.218256,2.56454 z"
           fill="#66a182"
           id="path3486" />
        <path
           inkscape:original-d="M 272.067,432.733 H 15 c -8.284,0 -15,-6.716 -15,-15 V 15 C 0,6.716 6.716,0 15,0 h 257.067 c 8.284,0 15,6.716 15,15 v 402.733 c 0,8.285 -6.716,15 -15,15 z"
           d="M 61.755875,100.08057 13.909583,72.466332 c -1.541946,-0.889926 -2.783405,-4.601773 -2.77276,-8.290306 l 0.517521,-179.320946 c 0.01065,-3.68854 1.269365,-5.95712 2.81131,-5.06682 l 47.846292,27.625861 c 1.541754,0.89019 2.783049,4.602049 2.772404,8.290338 L 64.56683,95.013322 c -0.01065,3.688729 -1.269201,5.957058 -2.810955,5.067248 z"
           fill="#5bc1eb"
           id="path3488" />
        <path
           inkscape:original-d="M 287.067,417.733 V 15 c 0,-8.284 -6.716,-15 -15,-15 H 143.533 v 432.733 h 128.534 c 8.284,0 15,-6.715 15,-15 z"
           d="m 64.56683,95.013322 0.51752,-179.308863 c 0.01064,-3.688289 -1.23065,-7.400148 -2.772404,-8.290338 L 38.389428,-106.39845 37.833357,86.273811 61.755875,100.08057 c 1.541754,0.88981 2.800309,-1.378519 2.810955,-5.067248 z"
           fill="#418bb3"
           id="path3490" />
        <path
           inkscape:original-d="m 464.867,126.4 c -8.284,0 -15,-6.716 -15,-15 V 15 c 0,-8.284 6.716,-15 15,-15 8.284,0 15,6.716 15,15 v 96.4 c 0,8.285 -6.716,15 -15,15 z"
           d="m 98.030408,-15.593927 c -1.541621,-0.890004 -2.782817,-4.601601 -2.772171,-8.289748 l 0.123876,-42.918564 c 0.01064,-3.688148 1.269101,-5.956567 2.810721,-5.066454 1.541615,0.890109 2.782796,4.601768 2.772156,8.28989 l -0.12388,42.918262 c -0.0106,3.688565 -1.269088,5.956614 -2.810702,5.066614 z"
           fill="#1f2a4d"
           id="path3492" />
        <path
           inkscape:original-d="m 368.467,126.4 c -8.284,0 -15,-6.716 -15,-15 V 15 c 0,-8.284 6.716,-15 15,-15 8.284,0 15,6.716 15,15 v 96.4 c 0,8.285 -6.716,15 -15,15 z"
           d="m 80.090369,-25.951013 c -1.54169,-0.890043 -2.782942,-4.601741 -2.772297,-8.289971 l 0.123876,-42.919536 c 0.01064,-3.688231 1.269158,-5.956685 2.810848,-5.066532 1.541684,0.89015 2.782923,4.601909 2.772277,8.290114 l -0.123876,42.919233 c -0.01065,3.688649 -1.269144,5.956733 -2.810828,5.066692 z"
           fill="#334a5e"
           id="path3494" />
        <path
           inkscape:original-d="M 104.322,381.692 C 99.445,379.082 96.4,373.999 96.4,368.466 V 319.2 H 79.267 c -6.61,0 -12.441,-4.327 -14.356,-10.653 -1.915,-6.326 0.536,-13.161 6.036,-16.827 l 96.4,-64.267 c 4.603,-3.069 10.521,-3.354 15.398,-0.745 4.877,2.61 7.922,7.693 7.922,13.226 V 289.2 H 207.8 c 6.61,0 12.441,4.327 14.356,10.653 1.915,6.326 -0.536,13.161 -6.036,16.827 l -96.4,64.267 c -4.6,3.068 -10.518,3.356 -15.398,0.745 z"
           d="M 30.600778,59.33576 C 29.696388,57.649734 29.13616,55.05941 29.14327,52.595842 l 0.06331,-21.93568 -3.188942,-1.840685 C 24.787318,28.109328 23.707553,25.556259 23.359242,22.533846 23.01093,19.51143 23.47592,16.731455 24.504348,15.690071 L 42.529474,-2.5674696 c 0.860661,-0.8718994 1.962492,-0.3629599 2.86685,1.3226604 0.904354,1.68606174 1.464557,4.2763704 1.457447,6.7398842 l -0.06331,21.9352 3.188776,1.840643 c 1.23024,0.710125 2.30993,3.2631 2.658215,6.285398 0.348285,3.022296 -0.116671,5.802179 -1.145027,6.84356 L 33.467712,60.658217 c -0.860123,0.871855 -1.96199,0.364334 -2.866934,-1.322457 z"
           fill="#ffeb3c"
           id="path3496" />
        <path
           inkscape:original-d="M 207.8,190.667 H 79.267 c -8.284,0 -15,-6.716 -15,-15 V 87.3 c 0,-8.284 6.716,-15 15,-15 H 207.8 c 8.284,0 15,6.716 15,15 v 88.367 c 0,8.284 -6.716,15 -15,15 z"
           d="M 50.105856,-14.599755 26.182803,-28.410071 c -1.541899,-0.890109 -2.783321,-4.602062 -2.772676,-8.290542 l 0.113554,-39.345719 c 0.01065,-3.688481 1.269327,-5.95709 2.811226,-5.066879 l 23.923053,13.811907 c 1.541801,0.890154 2.783133,4.602028 2.772488,8.290372 l -0.113553,39.344255 c -0.01064,3.688342 -1.269239,5.956973 -2.811039,5.066922 z"
           fill="#f5fafa"
           id="path3498" />
        <path
           inkscape:original-d="m 416.667,254.934 c -52.648,0 -95.333,-42.594 -95.333,-95.334 v -48.2 c 0,-8.284 6.716,-15 15,-15 H 497 c 8.284,0 15,6.716 15,15 v 48.2 c 0,52.641 -42.592,95.334 -95.333,95.334 z"
           d="M 88.895321,36.45306 C 79.097408,30.797268 71.208189,7.2476861 71.275961,-16.233564 l 0.06194,-21.459925 c 0.01065,-3.688258 1.269176,-5.95679 2.81089,-5.066707 l 29.899941,17.262241 c 1.54159,0.890012 2.78275,4.601569 2.77211,8.289662 L 106.7589,4.2506708 C 106.69126,27.686794 98.710299,42.118703 88.895321,36.45306 Z"
           fill="#486a6f"
           id="path3500" />
        <path
           inkscape:original-d="m 222.156,299.854 c -1.916,-6.326 -7.747,-10.653 -14.356,-10.653 h -17.133 v -49.267 c 0,-5.532 -3.045,-10.615 -7.922,-13.226 -4.877,-2.609 -10.795,-2.324 -15.398,0.745 l -23.813,15.875 v 121.744 l 72.587,-48.391 c 5.499,-3.666 7.951,-10.501 6.035,-16.827 z"
           d="m 52.637453,35.556761 c -0.348472,-3.022406 -1.428162,-5.57538 -2.658215,-6.285398 L 46.790462,27.430721 46.853771,5.495075 C 46.86088,3.0320064 46.300676,0.44169778 45.396324,-1.2448092 44.491966,-2.9304295 43.390135,-3.439369 42.529474,-2.5674696 L 38.076932,1.9422982 37.920489,56.148206 51.492612,42.400428 c 1.02817,-1.041487 1.493312,-3.821264 1.144841,-6.843667 z"
           fill="#ffc800"
           id="path3502" />
        <path
           inkscape:original-d="M 222.8,175.667 V 87.3 c 0,-8.284 -6.716,-15 -15,-15 H 143.533 V 190.667 H 207.8 c 8.284,0 15,-6.716 15,-15 z"
           d="m 52.916895,-19.666677 0.113553,-39.344255 c 0.01064,-3.688344 -1.230687,-7.400218 -2.772488,-8.290372 l -11.961439,-6.905903 -0.152104,52.702344 11.961439,6.905108 c 1.5418,0.890051 2.800394,-1.37858 2.811039,-5.066922 z"
           fill="#d8e1e2"
           id="path3504" />
        <path
           inkscape:original-d="M 272.067,512 H 15 C 6.716,512 0,505.284 0,497 V 417.733 H 287.067 V 497 c 0,8.284 -6.716,15 -15,15 z"
           d="M 61.654016,135.37272 13.807723,107.76061 c -1.541945,-0.88985 -2.783405,-4.60164 -2.77276,-8.290176 l 0.10186,-35.294408 53.430007,30.837296 -0.10186,35.292028 c -0.01064,3.68828 -1.2692,5.95711 -2.810954,5.06737 z"
           fill="#418bb3"
           id="path3506" />
        <path
           inkscape:original-d="M 287.067,497 V 417.733 H 143.533 V 512 h 128.534 c 8.284,0 15,-6.716 15,-15 z"
           d="M 64.46497,130.30535 64.56683,95.013322 37.852632,79.595139 37.731497,121.56703 61.654016,135.37272 c 1.541754,0.88974 2.800309,-1.37909 2.810954,-5.06737 z"
           fill="#27547c"
           id="path3508" />
        <path
           inkscape:original-d="M 497,96.4 H 416.667 V 254.933 C 469.408,254.933 512,212.24 512,159.599 V 111.4 c 0,-8.284 -6.716,-15 -15,-15 z"
           d="M 104.04873,-25.497955 89.09904,-34.128913 88.895322,36.452615 C 98.7103,42.118258 106.69126,27.686349 106.7589,4.2502256 l 0.0619,-21.4585186 c 0.0106,-3.688093 -1.23052,-7.39965 -2.77211,-8.289662 z"
           fill="#334a5e"
           id="path3510" />
      </g>
      <g
         inkscape:path-effect="#path-effect5992"
         transform="matrix(0.78009504,0,0,0.78009504,106.0286,-64.114315)"
         id="g5990">
        <path
           inkscape:original-d="M 359.2,218.5 C 356.499,213.999 351.4,211 346,211 h -75 v -75 c 0,-6.599 -4.501,-12.599 -11.1,-14.399 -1.199,-0.3 -2.701,-0.601 -3.9,-0.601 -5.099,0 -9.901,2.701 -12.9,7.2 l -90,150 c -2.701,4.801 -2.701,10.501 -0.3,15.3 2.701,4.501 7.8,7.5 13.2,7.5 h 75 v 75 c 0,6.599 4.501,12.599 11.1,14.399 1.199,0.3 2.701,0.601 3.9,0.601 5.099,0 10.201,-2.701 12.9,-7.2 l 90,-150 c 2.701,-4.801 2.701,-10.501 0.3,-15.3 z"
           style="fill:#fcbf29"
           d="m 297.56753,349.45537 c -0.18287,-0.27794 -0.52871,-0.59247 -0.89531,-0.80417 l -5.0915,-2.94012 0.008,-2.86697 c 7.1e-4,-0.25226 -0.3042,-0.65807 -0.75199,-0.98556 -0.0814,-0.0585 -0.1833,-0.12885 -0.26469,-0.17585 -0.34615,-0.19988 -0.67243,-0.28486 -0.87649,-0.23042 l -6.12484,2.20604 c -0.18382,0.0776 -0.18441,0.2955 -0.0219,0.57303 0.18285,0.27789 0.52862,0.59237 0.89513,0.80403 l 5.09062,2.93976 -0.008,2.86643 c -7e-4,0.2522 0.30416,0.65794 0.75188,0.9854 0.0814,0.0585 0.18326,0.12885 0.26465,0.17585 0.3461,0.19987 0.69269,0.29664 0.87638,0.23051 l 6.12594,-2.2049 c 0.18391,-0.0776 0.18454,-0.2955 0.0221,-0.57306 z"
           id="path5914" />
        <path
           inkscape:original-d="m 358.9,233.8 -90,150 c -2.699,4.499 -7.8,7.2 -12.9,7.2 V 121 c 1.199,0 2.701,0.3 3.9,0.601 6.599,1.8 11.1,7.8 11.1,14.399 v 75 h 75 c 5.4,0 10.499,2.999 13.2,7.5 2.401,4.799 2.401,10.499 -0.3,15.3 z"
           style="fill:#fea832"
           d="m 297.54546,350.02843 -6.12594,2.2049 c -0.18369,0.0661 -0.53022,-0.0306 -0.87638,-0.23051 l 0.029,-10.32012 c 0.0814,0.047 0.18333,0.11734 0.26469,0.17585 0.44779,0.32749 0.7527,0.7333 0.75199,0.98556 l -0.008,2.86697 5.0915,2.94012 c 0.3666,0.2117 0.71244,0.52623 0.89531,0.80417 0.16247,0.27756 0.16184,0.49544 -0.0221,0.57306 z"
           id="path5916" />
        <path
           inkscape:original-d="m 466.3,356.499 -1.5,45.3 -2.1,58.2 c 0.3,5.7 -2.401,11.4 -7.5,14.101 -4.801,2.999 -11.1,2.999 -16.201,-0.601 L 414.401,455.798 C 374.2,488.8 316.601,512 256,512 208.001,512 154.6,496 109.9,464.801 L 162.1,426.4 C 190,442 221.8,451 256,451 c 34.2,0 72.599,-9.901 104.7,-30.901 L 337.599,404.801 C 333.1,401.5 330.399,396.1 331,390.4 c 0.601,-5.4 4.501,-10.199 9.901,-12.299 0,0 46.8,-15.601 85.499,-28.2 6.899,-2.1 13.801,-4.501 19.801,-6.301 8.999,-3.901 19.499,3.001 20.099,12.899 z"
           style="fill:#6ecd24"
           d="m 304.82311,358.92886 -0.10707,1.67244 -0.14928,2.14178 c 0.0197,0.22958 -0.16432,0.3415 -0.51079,0.24479 -0.32627,-0.0736 -0.7539,-0.32061 -1.09978,-0.65817 l -1.66785,-1.64084 c -2.73269,-0.31498 -6.645,-1.68652 -10.7582,-4.06212 -3.25765,-1.88147 -6.88007,-4.58596 -9.91033,-7.53012 l 3.54647,0.57844 c 1.89188,1.68971 4.04919,3.2801 6.37041,4.62069 2.32132,1.34064 4.92884,2.46758 7.11022,2.92352 l -1.56645,-1.49026 c -0.30503,-0.30253 -0.48779,-0.61478 -0.44636,-0.80906 0.0414,-0.18281 0.30666,-0.21332 0.67346,-0.0819 0,0 3.17876,1.23851 5.80741,2.27424 0.46862,0.19023 0.93748,0.36907 1.34504,0.53552 0.61142,0.20374 1.3235,0.87922 1.3631,1.28103 z"
           id="path5918" />
        <path
           inkscape:original-d="m 466.3,356.499 -1.5,45.3 -2.1,58.2 c 0.3,5.7 -2.401,11.4 -7.5,14.101 -4.801,2.999 -11.1,2.999 -16.201,-0.601 L 414.401,455.798 C 374.2,488.8 316.601,512 256,512 v -61 c 34.2,0 72.599,-9.901 104.7,-30.901 L 337.599,404.801 C 333.1,401.5 330.399,396.1 331,390.4 c 0.601,-5.4 4.501,-10.199 9.901,-12.299 0,0 46.8,-15.601 85.499,-28.2 6.899,-2.1 13.801,-4.501 19.801,-6.301 8.999,-3.901 19.499,3.001 20.099,12.899 z"
           style="fill:#66bd21"
           d="m 304.82311,358.92886 -0.10707,1.67244 -0.14928,2.14178 c 0.0197,0.22958 -0.16432,0.3415 -0.51079,0.24479 -0.32627,-0.0736 -0.7539,-0.32061 -1.09978,-0.65817 l -1.66785,-1.64084 c -2.73269,-0.31498 -6.645,-1.68652 -10.7582,-4.06212 l 0.007,-2.33099 c 2.32132,1.34064 4.92884,2.46758 7.11022,2.92352 l -1.56645,-1.49026 c -0.30503,-0.30253 -0.48779,-0.61478 -0.44636,-0.80906 0.0414,-0.18281 0.30666,-0.21332 0.67346,-0.0819 0,0 3.17876,1.23851 5.80741,2.27424 0.46862,0.19023 0.93748,0.36907 1.34504,0.53552 0.61142,0.20374 1.3235,0.87922 1.3631,1.28103 z"
           id="path5920" />
        <path
           inkscape:original-d="M 155.501,466.3 109.9,464.8 52,462.7 C 46.3,463 40.6,460.299 37.899,455.2 34.9,450.399 34.9,444.1 38.5,438.999 L 56.201,414.401 C 23.153,373.872 0,316.522 0,256 0,207.666 16.323,154.201 47.199,109.9 L 85.6,162.1 C 69.858,190.086 61,221.779 61,256 c 0,34.201 9.394,69.758 30.901,104.7 l 15.298,-23.101 c 3.301,-4.499 8.701,-7.2 14.401,-6.599 5.4,0.601 10.199,4.501 12.299,9.901 0,0 15.601,46.8 28.2,85.499 2.1,6.899 4.501,13.801 6.301,19.801 3.901,8.999 -3.001,19.499 -12.899,20.099 z"
           style="fill:#bbee31"
           d="m 283.71429,350.94117 -3.09448,-1.84459 -3.92884,-2.34943 c -0.38681,-0.21192 -0.77332,-0.53851 -0.9561,-0.83922 -0.20302,-0.30099 -0.2024,-0.5417 0.0424,-0.59556 l 1.2036,-0.24632 c -2.23857,-2.84402 -3.80407,-5.94319 -3.79816,-8.25642 0.005,-1.84751 1.1177,-3.25159 3.21758,-3.73512 l 2.60107,3.50045 c -1.07123,0.45285 -1.67557,1.31715 -1.679,2.6252 -0.003,1.30723 0.63054,3.03439 2.08657,5.21272 l 1.04054,-0.28333 c 0.22448,-0.0426 0.59124,0.0658 0.97802,0.31221 0.36643,0.23461 0.69173,0.57176 0.83369,0.86045 0,0 1.05399,2.40007 1.90504,4.37281 0.1418,0.34595 0.30403,0.70382 0.42557,1.00366 0.26381,0.49679 -0.2057,0.62751 -0.87749,0.26249 z"
           id="path5922" />
        <path
           inkscape:original-d="M 402.1,47.199 349.9,85.6 C 322,70 290.2,61 256,61 219.401,61 185.2,71.201 151.3,91.901 l 23.101,15.298 c 4.499,3.301 7.2,8.701 6.599,14.401 -0.601,5.4 -4.501,10.199 -9.901,12.299 0,0 -46.8,15.601 -85.499,28.2 -6.899,2.1 -13.801,4.501 -19.801,6.301 -9,3.9 -19.499,-3.001 -20.099,-12.9 L 47.2,109.899 49.3,52 C 49,46.3 51.701,40.6 56.8,37.899 61.601,34.9 67.9,34.9 73.001,38.5 L 97.599,56.201 C 137.8,23.5 195.399,0 256,0 304.3,0 358.001,16.3 402.1,47.199 Z"
           style="fill:#6ecd24"
           d="m 300.49946,344.58877 -3.54855,-0.57838 c -1.89252,-1.69015 -4.0505,-3.28084 -6.37232,-4.62148 -2.4846,-1.43462 -4.80737,-2.3852 -7.11068,-2.92255 l 1.5665,1.49028 c 0.30505,0.30253 0.48783,0.61483 0.44644,0.80918 -0.0414,0.18288 -0.3066,0.21347 -0.67336,0.0821 0,0 -3.17825,-1.2379 -5.80614,-2.27299 -0.46845,-0.1901 -0.93713,-0.36882 -1.34453,-0.53516 -0.61121,-0.20363 -1.32307,-0.87888 -1.36281,-1.2808 l 0.10634,-1.68445 0.14829,-2.13119 c -0.0198,-0.22968 0.1641,-0.34175 0.51045,-0.24518 0.32617,0.0735 0.75371,0.32035 1.09957,0.6579 l 1.66782,1.64077 c 2.73211,0.32538 6.64456,1.6845 10.75866,4.05993 3.27921,1.89338 6.9235,4.6218 9.91432,7.53203 z"
           id="path5924" />
        <path
           inkscape:original-d="M 349.9,85.6 C 322,70 290.2,61 256,61 V 0 c 48.3,0 102.001,16.3 146.1,47.199 z"
           style="fill:#66bd21"
           d="m 296.95091,344.01039 c -1.89252,-1.69015 -4.0505,-3.28084 -6.37232,-4.62148 l 0.007,-2.33217 c 3.27921,1.89338 6.9235,4.6218 9.91432,7.53203 z"
           id="path5926" />
        <path
           inkscape:original-d="m 464.801,401.8 1.5,-45.3 c -0.601,-9.899 -11.1,-16.8 -20.099,-12.9 -6,1.8 -12.902,4.2 -19.801,6.301 15.901,-28.2 24.6,-60.3 24.6,-93.9 0,-41.4 -11.7,-73.5 -30.901,-104.7 l -15.298,23.101 c -3.301,4.499 -8.701,7.2 -14.401,6.599 -5.4,-0.601 -10.199,-4.501 -12.299,-9.901 0,0 -15.601,-46.8 -28.2,-85.499 -2.1,-6.899 -4.501,-13.801 -6.301,-19.801 -3.9,-9 3.001,-19.499 12.9,-20.099 l 45.601,1.5 57.9,2.1 c 5.7,-0.3 11.4,2.401 14.101,7.5 2.999,4.801 2.999,11.1 -0.601,16.201 L 455.801,97.6 C 488.8,138.1 512,195.399 512,256 c 0,54 -18.1,104.099 -47.199,145.8 z"
           style="fill:#98d400"
           d="m 304.71611,360.60137 0.10706,-1.67243 c -0.0397,-0.40189 -0.75168,-1.07729 -1.36309,-1.28107 -0.40756,-0.16645 -0.87642,-0.34533 -1.34504,-0.53553 1.08277,-0.45434 1.67706,-1.34015 1.68092,-2.62441 0.005,-1.58245 -0.78597,-3.26821 -2.08612,-5.21369 l -1.0413,0.28329 c -0.22463,0.0426 -0.59157,-0.0659 -0.9785,-0.31234 -0.36656,-0.23468 -0.69195,-0.57191 -0.83392,-0.86066 0,0 -1.05398,-2.40067 -1.90507,-4.37402 -0.14182,-0.34608 -0.30407,-0.70407 -0.42561,-1.00402 -0.2638,-0.49698 0.20591,-0.62783 0.87808,-0.26269 l 3.09607,1.84513 3.93132,2.35037 c 0.38709,0.21202 0.77384,0.53878 0.95666,0.83962 0.20309,0.30114 0.20236,0.54195 -0.0427,0.59582 l -1.2048,0.24634 c 2.23605,2.84212 3.80472,5.94214 3.79762,8.25855 -0.006,2.06396 -1.24112,3.269 -3.22159,3.72174 z"
           id="path5928" />
        <g
           id="g5930">
</g>
        <g
           id="g5932">
</g>
        <g
           id="g5934">
</g>
        <g
           id="g5936">
</g>
        <g
           id="g5938">
</g>
        <g
           id="g5940">
</g>
        <g
           id="g5942">
</g>
        <g
           id="g5944">
</g>
        <g
           id="g5946">
</g>
        <g
           id="g5948">
</g>
        <g
           id="g5950">
</g>
        <g
           id="g5952">
</g>
        <g
           id="g5954">
</g>
        <g
           id="g5956">
</g>
        <g
           id="g5958">
</g>
      </g>
    </g>
    <g
       inkscape:path-effect="#path-effect3444"
       transform="matrix(0.10948433,0,0,0.10948433,-227.89453,58.544675)"
       id="g3438">
      <path
         inkscape:original-d="m 386.10156,294.55469 c 0,-93.0586 -75.23828,-168.4961 -168.05078,-168.4961 -92.8125,0 -168.05078,75.4375 -168.05078,168.4961 0,93.05859 75.23828,168.49609 168.05078,168.49609 92.8125,0 168.05078,-75.4375 168.05078,-168.49609 z m 0,0"
         d="M 102.23406,169.6587 C 102.35305,127.41676 83.063772,81.979307 59.149894,68.170316 35.236016,54.361325 15.753815,77.410313 15.634824,119.65225 c -0.118992,42.24193 19.17029,87.67939 43.084168,101.48838 23.913878,13.80899 43.396078,-9.24 43.515068,-51.48193 z"
         fill="#89c8fd"
         id="path3382" />
      <path
         inkscape:original-d="m 218.05078,126.05859 c -8.625,0 -17.10156,0.65235 -25.375,1.91016 80.76953,12.26562 142.67188,82.17578 142.67188,166.58594 0,84.41015 -61.90235,154.32031 -142.67188,166.58593 8.27344,1.25782 16.75,1.91016 25.375,1.91016 92.8125,0 168.05078,-75.4375 168.05078,-168.49609 0,-93.0586 -75.23828,-168.4961 -168.05078,-168.4961 z m 0,0"
         d="m 59.149894,68.170316 c -2.222299,-1.28326 -4.407187,-2.248314 -6.540513,-2.908312 20.795228,17.584906 36.655468,58.529176 36.547535,96.845336 -0.107933,38.31616 -16.146957,60.8403 -36.973552,54.39082 2.130109,1.80192 4.313328,3.35921 6.535628,4.64247 23.913878,13.80899 43.396078,-9.24 43.515068,-51.48193 C 102.35305,127.41676 83.063772,81.979307 59.149894,68.170316 Z"
         fill="#60b6ff"
         id="path3384" />
      <g
         fill="#baeb6c"
         id="g3396">
        <path
           inkscape:original-d="m 196.20703,191.54297 c -25.88672,16.22265 -45.30469,42.17578 -30.74219,71.3789 14.5625,29.19922 46.92188,17.84375 76.85547,13.78907 29.9336,-4.05469 7.28125,88.41406 25.07813,111.125 17.79687,22.71093 67.95312,-22.71094 63.10156,-51.91407 -7.1875,-43.23437 -9.70703,-58.40234 48.53906,-89.22265 l 0.15625,-0.0586 C 359.5625,180.16016 300.13281,130.83203 228.57422,126.39844 l -0.008,0.2539 c 0,0 -6.47266,48.66797 -32.35938,64.89063 z m 0,0"
           d="m 53.437945,94.645538 c -6.690662,3.512398 -11.727042,12.404182 -8.012239,27.826972 3.714807,15.42101 12.066979,15.08099 19.784791,17.69409 7.717814,2.6131 1.763019,41.21698 6.319487,54.17401 4.556465,12.95702 17.537701,-0.19882 16.324999,-14.17678 -1.796634,-20.69469 -2.426416,-27.95473 12.620557,-33.27887 l 0.0403,-0.003 C 95.542335,113.7832 80.292878,82.549587 61.860908,69.8903 l -0.0024,0.114062 c 0,0 -1.729963,21.128746 -8.420625,24.641148 z"
           id="path3386" />
        <path
           inkscape:original-d="m 323.33984,163.23828 c 0.0117,0.008 0.0234,0.0195 0.0352,0.0273 -0.0117,-0.008 -0.0234,-0.0156 -0.0352,-0.0273 z m 0,0"
           d="m 86.230917,100.71253 c 0.003,0.005 0.006,0.0123 0.009,0.0176 -0.003,-0.005 -0.006,-0.0106 -0.009,-0.0176 z"
           id="path3388" />
        <path
           inkscape:original-d="m 343.89062,182.89453 c 0,0.004 0.004,0.008 0.008,0.008 -0.004,-0.004 -0.004,-0.004 -0.008,-0.008 z m 0,0"
           d="m 91.500855,112.69268 c -6e-6,0.002 0.001,0.004 0.0021,0.005 z"
           id="path3390" />
        <path
           inkscape:original-d="m 106.41016,370.80078 c -7.773441,-11.85547 13.7539,-39.74219 18.60547,-60.83203 C 129.87109,288.87891 100.74609,290.5 91.847656,283.19922 82.949219,275.89844 70.8125,244.26562 61.914062,236.96484 l -1.421874,-1.12109 C 53.710938,254.125 50,273.90625 50,294.55469 50,350.25 76.953125,399.625 118.49219,430.30078 l 0.0508,-3.53125 c 0,0 6.47266,-27.57812 -12.13281,-55.96875 z m 0,0"
           d="m 30.071856,162.65543 c -1.987729,-6.5381 3.594619,-15.99375 4.871632,-24.84519 1.278015,-8.85087 -6.228346,-12.44833 -8.511763,-17.08631 -2.283418,-4.63797 -5.370092,-20.802752 -7.65351,-25.440726 l -0.364924,-0.720447 c -1.770618,7.289443 -2.752065,15.716583 -2.778467,25.089493 -0.07122,25.28168 6.810336,51.70458 17.473982,71.80953 l 0.0176,-1.59538 c 0,0 1.702995,-11.55547 -3.05455,-27.21097 z"
           id="path3392" />
        <path
           inkscape:original-d="m 330.5,335.92187 c -0.0352,-0.21093 -0.0703,-0.41796 -0.10547,-0.6289 -3.21484,12.98828 -7.93359,25.38281 -13.96094,36.98437 9.5586,-11.28125 15.94532,-25.03515 14.06641,-36.35547 z m 0,0"
           d="m 87.854983,180.16383 c -0.0088,-0.10099 -0.01758,-0.20019 -0.02637,-0.30117 -0.844937,5.41743 -2.076609,10.34159 -3.644438,14.71109 2.477274,-3.69871 4.14045,-8.99176 3.670809,-14.40992 z"
           id="path3394" />
      </g>
      <path
         inkscape:original-d="m 228.57422,126.39844 -0.008,0.2539 c 0,0 -0.53907,4.0625 -1.92969,10.22266 58.92969,22.30469 102.07422,76.85937 108.01172,142.20312 7.42578,-10.15625 21.00781,-20.00781 44.39062,-32.3789 l 0.15625,-0.0586 C 359.5625,180.16016 300.13281,130.83203 228.57422,126.39844 Z m 0,0"
         d="m 61.860908,69.8903 -0.0024,0.114062 c 0,0 -0.14409,1.763879 -0.510272,4.353249 15.155183,18.892511 26.201956,50.075629 27.648247,80.620419 1.926298,-3.50538 5.438413,-5.95649 11.479003,-8.0931 l 0.0403,-0.003 C 95.542335,113.7832 80.292878,82.549587 61.860908,69.8903 Z"
         fill="#96d629"
         id="path3398" />
      <path
         inkscape:original-d="m 217.82422,512 c -11.90235,0 -23.89063,-0.97656 -35.8711,-2.95703 C 124.68359,499.58594 74.523438,468.39453 40.714844,421.21484 6.90625,374.03516 -6.503906,316.51172 2.957031,259.24609 c 0.683594,-4.14843 4.613281,-6.95312 8.75,-6.26953 4.148438,0.6836 6.957031,4.60157 6.269531,8.75 -8.792968,53.25391 3.675782,106.7461 35.117188,150.6211 31.441406,43.875 78.08203,72.8789 131.34375,81.67578 109.94922,18.16406 214.15234,-56.51172 232.3125,-166.44531 8.79297,-53.25391 -3.67578,-106.7461 -35.11719,-150.6211 -31.4375,-43.875 -78.08203,-72.8789 -131.33984,-81.67578 -4.14844,-0.683594 -6.95703,-4.601562 -6.27344,-8.75 0.6875,-4.148438 4.61328,-6.953125 8.75,-6.269531 57.27344,9.457031 107.43359,40.648441 141.23828,87.828121 33.8086,47.17969 47.21875,104.70313 37.76172,161.96875 -9.45703,57.26563 -40.65234,107.42188 -87.83594,141.22657 C 306.61719,498.01953 262.83594,512 217.82422,512 Z m 0,0"
         d="m 58.598027,243.32636 c -3.066735,-1.77088 -6.154362,-3.99783 -9.238693,-6.67932 C 34.615477,223.83345 21.731199,202.21177 13.080473,175.76541 4.429747,149.31904 1.0480673,121.21231 3.5589769,96.625447 3.7404148,94.844065 4.7565162,94.15561 5.8215006,95.081388 c 1.0680039,0.927525 1.7866505,3.123876 1.6042061,4.904677 -2.3336723,22.865205 0.8106013,49.001975 8.8556283,73.596055 8.045026,24.59408 20.025267,44.69914 33.737324,56.61677 28.306065,24.60383 55.250311,6.21011 60.069991,-40.98993 2.33367,-22.86521 -0.8106,-49.00198 -8.85563,-73.59605 C 93.189002,91.019412 81.207755,70.913771 67.496705,58.996722 66.4287,58.069199 65.710055,55.87285 65.891492,54.091463 c 0.182444,-1.780805 1.197539,-2.46984 2.262523,-1.54406 14.744865,12.814171 27.629142,34.435851 36.278865,60.881637 8.65072,26.44637 12.0324,54.5531 9.5225,79.14053 -2.5099,24.58745 -10.61176,42.71344 -22.812211,51.03819 -9.649051,6.58342 -20.947515,6.41561 -32.545142,-0.2814 z"
         fill="#09a66d"
         id="path3400" />
      <path
         inkscape:original-d="M 171.60547,183.88672 C 90.339844,170.09766 39.925781,67.777344 39.925781,67.777344 c 0,0 81.347659,-79.964844 162.613279,-66.179688 81.26563,13.785156 131.67969,116.105474 131.67969,116.105474 0,0 -81.34766,79.96874 -162.61328,66.18359 z m 0,0"
         d="M 47.108948,87.509837 C 26.187845,69.159588 13.329095,15.212702 13.329095,15.212702 c 0,0 21.06212,-24.195102 41.983226,-5.8466257 C 76.23343,27.714554 89.092179,81.66144 89.092179,81.66144 c 0,0 -21.062125,24.19687 -41.983231,5.848397 z"
         fill="#49cb5c"
         id="path3402" />
      <path
         inkscape:original-d="m 202.53906,1.597656 c -15.51953,-2.632812 -31.03515,-1.839844 -45.99219,1.15625 77.8711,17.484375 125.90625,114.949224 125.90625,114.949224 0,0 -53.25,52.33984 -116.625,65.02734 1.91016,0.42969 3.83204,0.82422 5.77735,1.15625 81.26562,13.78515 162.61328,-66.18359 162.61328,-66.18359 0,0 -50.41406,-102.320318 -131.67969,-116.105474 z m 0,0"
         d="M 55.312321,9.3660763 C 51.316957,5.8619146 47.318221,3.9133932 43.460589,3.0480409 63.50234,22.570648 75.754353,73.959557 75.754353,73.959557 c 0,0 -13.787211,15.835803 -30.132507,12.16585 0.491619,0.479249 0.986302,0.944282 1.487102,1.38443 20.921106,18.348473 41.983231,-5.848397 41.983231,-5.848397 0,0 -12.858749,-53.946886 -33.779858,-72.2953637 z"
         fill="#07b128"
         id="path3404" />
      <path
         inkscape:original-d="M 329.625,109.20703 250.15234,95.800781 175.91797,0.214844 C 169.99609,0.5625 164.12891,1.320312 158.33984,2.40625 l 69.625,89.648438 -59.92578,-10.109376 -51.13281,-66.15625 c -4.79687,2.164063 -9.46094,4.460938 -13.95703,6.84375 l 42.95703,55.578126 -99.089844,-16.71875 c -4.449218,3.886718 -6.890625,6.285156 -6.890625,6.285156 0,0 1.632813,3.308594 4.765625,8.796875 l 98.550784,16.625 -54.656252,42.261721 c 3.519531,3.625 7.210937,7.20703 11.070312,10.68359 l 64.01562,-49.496092 63.44141,10.703122 -86.28125,66.75391 c 5.35547,2.5 10.89063,4.66406 16.59766,6.40625 l 90.11328,-69.71094 79.52344,13.41406 c 4.60937,-4.01953 7.15234,-6.51171 7.15234,-6.51171 0,0 -1.57422,-3.1875 -4.59375,-8.4961 z m 0,0"
         d="M 87.919426,77.121344 67.459806,59.211628 48.454954,4.7775934 C 46.92869,4.0543248 45.415995,3.5253762 43.923007,3.1569948 L 61.74781,54.210031 46.320384,40.705117 33.230201,3.0671881 C 31.991482,3.3358214 30.78681,3.6845004 29.62531,4.0971812 L 40.622464,35.716977 15.112556,13.384904 c -1.151346,1.10232 -1.783461,1.827798 -1.783461,1.827798 0,0 0.416477,1.7448 1.216653,4.702198 L 39.916883,42.124214 25.780226,53.176046 c 0.9022,2.169139 1.84874,4.344345 2.838693,6.496667 L 45.176342,46.729516 61.50884,61.027017 39.192433,78.491263 c 1.376683,1.931628 2.800094,3.737498 4.268328,5.37744 l 23.30754,-18.236382 20.472694,17.920817 c 1.192781,-1.138779 1.851184,-1.891698 1.851184,-1.891698 0,0 -0.401535,-1.681115 -1.172753,-4.540096 z"
         fill="#09a66d"
         id="path3406" />
      <path
         inkscape:original-d="m 389.49219,84.566406 c 21.80078,-51.585937 97.33593,-68.953125 97.33593,-68.953125 0,0 40.19141,66.269531 18.39063,117.855469 -21.79688,51.58594 -97.33594,68.95312 -97.33594,68.95312 0,0 -40.1914,-66.26953 -18.39062,-117.855464 z m 0,0"
         d="m 103.37619,74.843531 c 5.68311,-20.172718 25.16754,-16.817776 25.16754,-16.817776 0,0 10.2709,36.061448 4.5878,56.234165 -5.6821,20.1733 -25.16755,16.81777 -25.16755,16.81777 0,0 -10.270895,-36.061443 -4.58779,-56.234159 z"
         fill="#49cb5c"
         id="path3408" />
      <path
         inkscape:original-d="m 486.82812,15.613281 c 0,0 -17.17578,3.953125 -37.51171,13.679688 C 459.75,51.394531 476.28906,96.25 460.55859,133.46875 c -11.40234,26.98437 -37.51172,44.60547 -59.82031,55.27344 4.02735,8.53125 7.14844,13.67968 7.14844,13.67968 0,0 75.53515,-17.36718 97.33594,-68.95312 C 527.01953,81.882812 486.82812,15.613281 486.82812,15.613281 Z m 0,0"
         d="m 128.54373,58.025755 c 0,0 -4.43053,-0.761041 -9.68268,0.628466 2.66004,11.584875 6.8641,34.406787 2.76343,48.960999 -2.9724,10.55248 -9.72223,14.66655 -15.48385,16.18989 1.02677,4.47178 1.82436,7.27316 1.82436,7.27316 0,0 19.48444,3.35495 25.16755,-16.81777 5.68209,-20.173297 -4.58881,-56.234745 -4.58881,-56.234745 z"
         fill="#07b128"
         id="path3410" />
      <path
         inkscape:original-d="m 511.39453,90.921875 -58.08594,24.367185 38.13672,-91.175779 c -2.73047,-5.390625 -4.61719,-8.5 -4.61719,-8.5 0,0 -3.59375,0.828125 -9.4414,2.65625 L 437.97266,112.49609 413.53125,52.359375 c -4.14063,3.652344 -8.04688,7.621094 -11.58984,11.921875 l 27.69531,68.14453 -26.01563,62.19531 c 2.53907,4.95703 4.26172,7.80078 4.26172,7.80078 0,0 3.90625,-0.89843 10.1875,-2.89062 l 26.86328,-64.21875 66.4375,-27.86719 c 0.44141,-5.51953 0.41797,-11.054685 0.0234,-16.523435 z m 0,0"
         d="m 134.77717,95.865544 -14.99746,2.418713 9.94281,-35.713148 c -0.69663,-2.853207 -1.17879,-4.545354 -1.17879,-4.545354 0,0 -0.92701,-0.158782 -2.43604,-0.198979 l -10.27583,36.907936 -6.22063,-30.934245 c -1.07154,1.041844 -2.08309,2.262186 -3.00146,3.687298 l 7.04878,35.053345 -6.78266,24.36151 c 0.64787,2.62791 1.08809,4.17507 1.08809,4.17507 0,0 1.00763,0.17337 2.62859,0.2036 l 7.00365,-25.15389 17.15378,-2.76489 c 0.12079,-2.43979 0.12183,-4.955846 0.0272,-7.496972 z"
         fill="#09a66d"
         id="path3412" />
    </g>
  </g>
</svg>
