<?xml version="1.0" encoding="UTF-8" standalone="no"?>
<svg
   xmlns:dc="http://purl.org/dc/elements/1.1/"
   xmlns:cc="http://creativecommons.org/ns#"
   xmlns:rdf="http://www.w3.org/1999/02/22-rdf-syntax-ns#"
   xmlns:svg="http://www.w3.org/2000/svg"
   xmlns="http://www.w3.org/2000/svg"
   xmlns:sodipodi="http://sodipodi.sourceforge.net/DTD/sodipodi-0.dtd"
   xmlns:inkscape="http://www.inkscape.org/namespaces/inkscape"
   inkscape:export-ydpi="96"
   inkscape:export-xdpi="96"
   inkscape:export-filename="/Users/andrewwu/Documents/Princeton 2019-2020/PSCI &amp; PSCA/untitled folder/New Logos/Prototype.png"
   sodipodi:docname="Prototype.svg"
   inkscape:version="1.0 (4035a4f, 2020-05-01)"
   id="svg8"
   version="1.1"
   viewBox="0 0 276.98962 155.72614"
   height="155.72614mm"
   width="276.98962mm">
  <defs
     id="defs2">
    <inkscape:path-effect
       overflow_perspective="false"
       vertical_mirror="false"
       horizontal_mirror="false"
       deform_type="perspective"
       lpeversion="1"
       is_visible="true"
       id="path-effect1151"
       down_right_point="316.05313,371.45618"
       down_left_point="82.463133,506.31618"
       up_right_point="219.89313,315.56618"
       up_left_point="-13.706867,450.43618"
       effect="perspective-envelope" />
    <inkscape:path-effect
       overflow_perspective="false"
       vertical_mirror="false"
       horizontal_mirror="false"
       deform_type="perspective"
       lpeversion="1"
       is_visible="true"
       id="path-effect1100"
       down_right_point="389.03895,219.95527"
       down_left_point="155.44895,354.81527"
       up_right_point="292.87895,164.06527"
       up_left_point="59.278948,298.93527"
       effect="perspective-envelope" />
    <inkscape:path-effect
       overflow_perspective="false"
       vertical_mirror="false"
       horizontal_mirror="false"
       deform_type="perspective"
       lpeversion="1"
       is_visible="true"
       id="path-effect948"
       down_right_point="289.42358,571.41864"
       down_left_point="165.64358,642.87864"
       up_right_point="193.26358,515.53864"
       up_left_point="69.483577,586.99864"
       effect="perspective-envelope" />
    <inkscape:path-effect
       overflow_perspective="false"
       vertical_mirror="false"
       horizontal_mirror="false"
       deform_type="perspective"
       lpeversion="1"
       is_visible="true"
       id="path-effect813"
       down_right_point="364.93691,295.00429"
       down_left_point="241.15691,366.46429"
       up_right_point="268.77691,239.12429"
       up_left_point="144.99691,310.58429"
       effect="perspective-envelope" />
    <inkscape:path-effect
       overflow_perspective="false"
       vertical_mirror="false"
       horizontal_mirror="false"
       deform_type="perspective"
       lpeversion="1"
       is_visible="true"
       id="path-effect721"
       down_right_point="189.73731,379.10778"
       down_left_point="-43.852686,513.96778"
       up_right_point="93.577314,323.21778"
       up_left_point="-140.02269,458.08778"
       effect="perspective-envelope" />
    <inkscape:path-effect
       overflow_perspective="false"
       vertical_mirror="false"
       horizontal_mirror="false"
       deform_type="perspective"
       lpeversion="1"
       is_visible="true"
       id="path-effect525"
       down_right_point="121.71954,75.59996"
       down_left_point="30.865836,128.04429"
       up_right_point="-37.615607,-16.996912"
       up_left_point="-128.45935,35.457383"
       effect="perspective-envelope" />
    <inkscape:path-effect
       overflow_perspective="false"
       vertical_mirror="false"
       horizontal_mirror="false"
       deform_type="perspective"
       lpeversion="1"
       is_visible="true"
       id="path-effect523"
       down_right_point="996.43782,286.54701"
       down_left_point="872.63782,349.85701"
       up_right_point="900.25782,222.51701"
       up_left_point="776.47782,293.97701"
       effect="perspective-envelope" />
    <clipPath
       id="clip-path">
      <path
         d="m 456.56,172.05 v 8.15 c 0,2.22 -1.47,4.44 -4.39,6.14 -5.87,3.41 -15.42,3.41 -21.33,0 -3,-1.72 -4.46,-4 -4.45,-6.22 v -8.15 c 0,2.25 1.48,4.5 4.45,6.22 5.91,3.41 15.46,3.41 21.33,0 2.92,-1.7 4.38,-3.92 4.39,-6.14 z"
         fill="none"
         id="path10" />
    </clipPath>
  </defs>
  <sodipodi:namedview
     inkscape:window-maximized="0"
     inkscape:window-y="23"
     inkscape:window-x="0"
     inkscape:window-height="788"
     inkscape:window-width="1252"
     showgrid="false"
     inkscape:document-rotation="0"
     inkscape:current-layer="layer1"
     inkscape:document-units="mm"
     inkscape:cy="298.34929"
     inkscape:cx="693.93248"
     inkscape:zoom="0.70273548"
     inkscape:pageshadow="2"
     inkscape:pageopacity="0.0"
     borderopacity="1.0"
     bordercolor="#666666"
     pagecolor="#ffffff"
     id="base" />
  <metadata
     id="metadata5">
    <rdf:RDF>
      <cc:Work
         rdf:about="">
        <dc:format>image/svg+xml</dc:format>
        <dc:type
           rdf:resource="http://purl.org/dc/dcmitype/StillImage" />
        <dc:title></dc:title>
      </cc:Work>
    </rdf:RDF>
  </metadata>
  <g
     transform="translate(324.4591,-59.720262)"
     id="layer1"
     inkscape:groupmode="layer"
     inkscape:label="Layer 1">
    <g
       transform="matrix(0.26458333,0,0,0.26458333,-330.01535,16.522073)"
       id="g225">
      <rect
         style="fill:#e5ffd5"
         x="345.64999"
         y="518.28998"
         width="722.23999"
         height="71.690002"
         rx="22.77"
         ry="22.77"
         fill="#e1edf9"
         id="rect17" />
      <rect
         style="fill:#e5ffd5"
         x="205.67999"
         y="580.47998"
         width="754"
         height="71.269997"
         rx="22.77"
         ry="22.77"
         fill="#e1edf9"
         id="rect19" />
      <rect
         style="fill:#e5ffd5"
         x="21"
         y="453.78"
         width="815.15997"
         height="71.269997"
         rx="22.77"
         ry="22.77"
         fill="#e1edf9"
         id="rect21" />
      <rect
         style="fill:#e5ffd5"
         x="111.57"
         y="382.70999"
         width="858.67999"
         height="71.269997"
         rx="22.77"
         ry="22.77"
         fill="#e1edf9"
         id="rect23" />
      <g
         style="isolation:isolate"
         id="g31">
        <polygon
           style="fill:#00aa44"
           points="472.07,335 881.67,573.04 593.17,739.61 183.56,501.57 "
           fill="#2929cd"
           id="polygon25" />
        <polygon
           style="fill:#165016"
           points="881.67,573.04 881.71,585.27 593.2,751.84 593.17,739.61 "
           fill="#2525b8"
           id="polygon27" />
        <polygon
           style="fill:#005522"
           points="593.17,739.61 593.2,751.84 183.6,513.8 183.56,501.57 "
           fill="#1a1a7f"
           id="polygon29" />
      </g>
      <g
         style="isolation:isolate"
         id="g39">
        <polygon
           points="477.45,298.79 817.71,496.53 565.5,642.14 225.24,444.4 "
           fill="#71dbd6"
           id="polygon33" />
        <polygon
           points="817.71,496.53 817.73,504.68 565.53,650.29 565.5,642.14 "
           fill="#65c5c1"
           id="polygon35" />
        <polygon
           points="565.5,642.14 565.53,650.29 225.27,452.56 225.24,444.4 "
           fill="#468885"
           id="polygon37" />
      </g>
      <g
         style="isolation:isolate"
         id="g47">
        <polygon
           points="465.42,201.65 485.77,213.47 252.17,348.34 231.83,336.51 "
           fill="#dbdbdb"
           id="polygon41" />
        <polygon
           points="485.77,213.47 485.79,221.62 252.19,356.49 252.17,348.34 "
           fill="#c5c5c5"
           id="polygon43" />
        <polygon
           points="252.17,348.34 252.19,356.49 231.85,344.67 231.83,336.51 "
           fill="#888888"
           id="polygon45" />
      </g>
      <g
         style="isolation:isolate"
         id="g55">
        <polygon
           points="510.17,229.47 606.33,285.36 372.74,420.22 276.57,364.34 "
           fill="#dbdbdb"
           id="polygon49" />
        <polygon
           points="606.33,285.36 606.36,293.51 372.76,428.37 372.74,420.22 "
           fill="#c5c5c5"
           id="polygon51" />
        <polygon
           points="372.74,420.22 372.76,428.37 276.6,372.49 276.57,364.34 "
           fill="#888888"
           id="polygon53" />
      </g>
      <g
         style="isolation:isolate"
         id="g63">
        <polygon
           points="515.61,360.88 611.77,416.76 487.99,488.22 391.83,432.34 "
           fill="#dbdbdb"
           id="polygon57" />
        <polygon
           points="611.77,416.76 611.79,424.91 488.01,496.38 487.99,488.22 "
           fill="#c5c5c5"
           id="polygon59" />
        <polygon
           points="487.99,488.22 488.01,496.38 391.85,440.49 391.83,432.34 "
           fill="#888888"
           id="polygon61" />
      </g>
      <g
         style="isolation:isolate"
         id="g71">
        <polygon
           points="562.33,469.59 616.88,501.29 561.96,533 507.41,501.29 "
           fill="#dba1b9"
           id="polygon65" />
        <polygon
           points="616.88,501.29 616.9,509.44 561.98,541.15 561.96,533 "
           fill="#c591a6"
           id="polygon67" />
        <polygon
           points="561.96,533 561.98,541.15 507.43,509.44 507.41,501.29 "
           fill="#886473"
           id="polygon69" />
      </g>
      <g
         style="isolation:isolate"
         id="g79">
        <polygon
           points="636,292.05 795.96,385.01 704.75,437.66 544.8,344.71 "
           fill="#dbdbdb"
           id="polygon73" />
        <polygon
           points="795.96,385.01 795.98,393.16 704.77,445.81 704.75,437.66 "
           fill="#c5c5c5"
           id="polygon75" />
        <polygon
           points="704.75,437.66 704.77,445.81 544.82,352.86 544.8,344.71 "
           fill="#888888"
           id="polygon77" />
      </g>
      <g
         style="isolation:isolate"
         id="g87">
        <polygon
           points="644.97,424.99 699.52,456.69 644.62,488.39 590.07,456.69 "
           fill="#dba1b9"
           id="polygon81" />
        <polygon
           points="699.52,456.69 699.55,464.84 644.64,496.54 644.62,488.39 "
           fill="#c591a6"
           id="polygon83" />
        <polygon
           points="644.62,488.39 644.64,496.54 590.09,464.84 590.07,456.69 "
           fill="#886473"
           id="polygon85" />
      </g>
      <g
         style="isolation:isolate"
         id="g95">
        <polygon
           points="316.24,232.76 333.8,242.97 293.79,266.07 276.23,255.86 "
           fill="#71dbd6"
           id="polygon89" />
        <polygon
           points="333.8,242.97 333.82,251.12 293.81,274.22 293.79,266.07 "
           fill="#65c5c1"
           id="polygon91" />
        <polygon
           points="293.79,266.07 293.81,274.22 276.25,264.01 276.23,255.86 "
           fill="#468885"
           id="polygon93" />
      </g>
      <g
         style="isolation:isolate"
         id="g103">
        <polygon
           points="375.28,197.33 392.84,207.54 352.82,230.65 335.26,220.44 "
           fill="#71dbd6"
           id="polygon97" />
        <polygon
           points="392.84,207.54 392.86,215.69 352.84,238.8 352.82,230.65 "
           fill="#65c5c1"
           id="polygon99" />
        <polygon
           points="352.82,230.65 352.84,238.8 335.28,228.59 335.26,220.44 "
           fill="#468885"
           id="polygon101" />
      </g>
      <g
         style="isolation:isolate"
         id="g149">
        <g
           style="isolation:isolate"
           id="g145">
          <g
             clip-path="url(#clip-path)"
             id="g143">
            <g
               style="isolation:isolate"
               id="g141">
              <path
                 d="m 456.56,172.05 v 8.15 c 0,0 0,0.09 0,0.13 v -8.15 c 0,0 0,-0.09 0,-0.13"
                 fill="#921240"
                 id="path105" />
              <path
                 d="m 456.56,172.18 v 8.15 a 5.15,5.15 0 0 1 -0.1,0.86 v -8.15 a 5.15,5.15 0 0 0 0.1,-0.86"
                 fill="#971343"
                 id="path107" />
              <path
                 d="m 456.46,173 v 8.15 a 5.48,5.48 0 0 1 -0.24,0.85 v -8.15 a 5.48,5.48 0 0 0 0.24,-0.85"
                 fill="#9c1345"
                 id="path109" />
              <path
                 d="m 456.21,173.9 v 8.15 a 6.1,6.1 0 0 1 -0.4,0.86 v -8.15 a 6.1,6.1 0 0 0 0.4,-0.86"
                 fill="#a11447"
                 id="path111" />
              <path
                 d="m 455.81,174.76 v 8.15 a 7.11,7.11 0 0 1 -0.61,0.9 v -8.15 a 7.11,7.11 0 0 0 0.61,-0.9"
                 fill="#a61449"
                 id="path113" />
              <path
                 d="m 455.2,175.66 v 8.15 a 8.69,8.69 0 0 1 -0.94,1 v -8.15 a 8.69,8.69 0 0 0 0.94,-1"
                 fill="#ab154b"
                 id="path115" />
              <path
                 d="m 454.27,176.66 v 8.15 a 11.7,11.7 0 0 1 -1.91,1.42 v -8.15 a 11.7,11.7 0 0 0 1.91,-1.42"
                 fill="#b0164e"
                 id="path117" />
              <path
                 d="m 452.36,178.08 v 8.15 l -0.18,0.11 a 17.06,17.06 0 0 1 -3.31,1.45 v -8.15 a 17.06,17.06 0 0 0 3.31,-1.45 l 0.18,-0.11"
                 fill="#b51650"
                 id="path119" />
              <path
                 d="m 448.86,179.64 v 8.15 A 21.84,21.84 0 0 1 446,188.5 v -8.15 a 21.84,21.84 0 0 0 2.86,-0.71"
                 fill="#b0164e"
                 id="path121" />
              <path
                 d="m 446,180.35 v 8.15 c -0.63,0.11 -1.27,0.2 -1.92,0.27 v -8.15 c 0.65,-0.06 1.29,-0.15 1.92,-0.27"
                 fill="#ab154b"
                 id="path123" />
              <path
                 d="m 444.09,180.62 v 8.15 q -0.83,0.08 -1.67,0.11 v -8.15 q 0.84,0 1.67,-0.11"
                 fill="#a61449"
                 id="path125" />
              <path
                 d="m 442.41,180.73 v 8.15 q -0.77,0 -1.54,0 v -8.15 q 0.77,0 1.54,0"
                 fill="#a11447"
                 id="path127" />
              <path
                 d="m 440.87,180.74 v 8.15 q -0.74,0 -1.48,-0.08 v -8.15 q 0.74,0.06 1.48,0.08"
                 fill="#9c1345"
                 id="path129" />
              <path
                 d="m 439.38,180.66 v 8.15 q -0.74,-0.06 -1.47,-0.16 v -8.15 q 0.73,0.1 1.47,0.16"
                 fill="#971343"
                 id="path131" />
              <path
                 d="m 437.92,180.5 v 8.15 q -0.76,-0.11 -1.5,-0.26 v -8.15 q 0.74,0.15 1.5,0.26"
                 fill="#921240"
                 id="path133" />
              <path
                 d="m 436.42,180.24 v 8.15 q -0.8,-0.17 -1.57,-0.39 v -8.15 q 0.77,0.22 1.57,0.39"
                 fill="#8d113e"
                 id="path135" />
              <path
                 d="M 434.85,179.85 V 188 c -0.63,-0.18 -1.24,-0.39 -1.83,-0.62 v -8.15 c 0.59,0.23 1.2,0.44 1.83,0.62"
                 fill="#88113c"
                 id="path137" />
              <path
                 d="m 433,179.23 v 8.15 a 16.41,16.41 0 0 1 -2.18,-1 c -3,-1.72 -4.46,-4 -4.45,-6.22 v -8.15 c 0,2.25 1.48,4.5 4.45,6.22 a 16.4,16.4 0 0 0 2.18,1"
                 fill="#83103a"
                 id="path139" />
            </g>
          </g>
        </g>
        <path
           d="m 452.1,165.83 c 5.91,3.41 5.94,8.94 0.07,12.36 -5.87,3.42 -15.42,3.41 -21.33,0 -5.91,-3.41 -5.94,-8.94 -0.07,-12.36 5.87,-3.42 15.42,-3.41 21.33,0 z"
           fill="#d91b60"
           id="path147" />
      </g>
    </g>
    <g
       inkscape:path-effect="#path-effect525"
       transform="matrix(0.17174085,0,0,0.17174085,-151.89582,102.71403)"
       id="g335">
      <path
         inkscape:original-d="m 450,195 v 31.24 L 402.71,510 H 255 V 195 Z"
         d="M 23.297,18.415079 33.057126,24.08713 110.69368,81.964522 76.290754,101.82324 -22.117561,44.635001 Z"
         fill="#007579"
         id="path315" />
      <path
         inkscape:original-d="M 255,195 V 510 H 107.29 L 60,226.24 V 195 Z"
         d="M -22.117561,44.635001 76.290754,101.82324 41.89005,121.68068 -57.768741,76.524133 -67.528257,70.852691 Z"
         fill="#00a98f"
         id="path317" />
      <path
         inkscape:original-d="M 450,195 H 255 V 0 c 50.44,0 98.08,18.06 134.17,50.87 36.5,33.18 58.09,78.75 60.81,128.31 0.14,2.63 0.02,14.88 0.02,15.82 z"
         d="M 23.297,18.415079 -22.117561,44.635001 -83.039412,9.2313521 c 11.74637,-6.7824986 28.483386,-9.90957125 47.139134,-8.8054633 18.867034,1.1161661 38.1326918,6.4869109 54.250054,15.1195302 0.854285,0.458689 4.653545,2.698989 4.947224,2.86966 z"
         fill="#00a98f"
         id="path319" />
      <path
         inkscape:original-d="M 255,0 V 195 H 60 c 0,-0.94 -0.12,-13.19 0.02,-15.82 C 62.74,129.62 84.33,84.05 120.83,50.87 156.92,18.06 204.56,0 255,0 Z"
         d="m -83.039412,9.2313521 60.921851,35.4036489 -45.410696,26.21769 c -0.293661,-0.170652 -4.148573,-2.378443 -4.9376,-2.874728 -14.849516,-9.363107 -24.05855,-20.538999 -25.924918,-31.47037 -1.846285,-10.809299 3.605251,-20.493892 15.351363,-27.2762409 z"
         fill="#00dc80"
         id="path321" />
      <path
         inkscape:original-d="M 360,29.04 V 83.78 C 360,109.27 339.27,130 313.78,130 H 255 V 0 c 37.8,0 74.03,10.14 105,29.04 z"
         d="M -49.513984,0.38482525 -32.41173,10.323616 c 7.963715,4.628028 9.612419,11.179247 3.676071,14.606706 L -42.42464,32.833904 -83.039412,9.2313521 c 8.802767,-5.0828259 20.408072,-8.1135647 33.525428,-8.84652685 z"
         fill="#04303e"
         id="path323" />
      <path
         inkscape:original-d="M 255,0 V 130 H 196.22 C 170.73,130 150,109.27 150,83.78 V 29.04 C 180.97,10.14 217.2,0 255,0 Z"
         d="m -83.039412,9.2313521 40.614772,23.6025519 -13.688629,7.903379 c -5.935977,3.427245 -17.239752,2.4509 -25.203199,-2.176859 l -17.101678,-9.938215 c 1.307183,-7.595582 6.576112,-14.308115 15.378734,-19.3908569 z"
         fill="#07485e"
         id="path325" />
      <path
         inkscape:original-d="m 310.82,326.358 -26.02,14.94 -26.5,-46.13 c -0.77,-1.35 -1.98,-1.63 -2.85,-1.63 -0.14,0 -0.29,0.01 -0.45,0.03 v -30.02 c 0.15,-0.01 0.3,-0.01 0.45,-0.01 12.04,0 22.83,6.22 28.85,16.65 z"
         d="M 31.920411,60.978357 30.527854,67.189168 9.9447197,62.377116 c -0.6010796,-0.141568 -0.9703519,-0.02972 -1.1729665,0.08725 -0.032605,0.01882 -0.064414,0.04081 -0.095428,0.06595 l -9.37857654,-5.450193 c 0.0318092,-0.02198 0.0667425,-0.04215 0.10167581,-0.06232 C 2.2034121,55.399002 6.6595078,55.077516 11.319979,56.161712 Z"
         fill="#b3d1d6"
         id="path327" />
      <path
         inkscape:original-d="m 255,263.548 v 30.02 c -0.8,0.09 -1.74,0.47 -2.4,1.59 l -25.93,45.95 -26.13,-14.75 26.05,-46.17 c 5.95,-10.3 16.54,-16.49 28.41,-16.64 z"
         d="M -0.70225164,57.080127 8.6763249,62.53032 c -0.1581952,0.1239 -0.258396,0.319273 -0.062204,0.611348 L 16.930445,74.970144 6.2370904,75.805379 -2.1200789,63.92089 c -1.8321455,-2.669951 -1.2996929,-5.217589 1.41782726,-6.840763 z"
         fill="#f1f6f7"
         id="path329" />
      <path
         inkscape:original-d="m 192.625,441.462 48.367,-0.014 -0.009,-30 -48.341,0.014 c -1.583,-0.002 -2.435,-0.905 -2.87,-1.663 -0.436,-0.757 -0.789,-1.947 0.005,-3.316 l 21.575,-38.234 -26.128,-14.743 -21.456,38.025 c -5.989,10.405 -5.99,22.82 0.001,33.232 6.008,10.439 16.786,16.682 28.856,16.699 z"
         d="m 40.352599,97.766181 11.259997,-6.505042 -9.374187,-5.445205 -11.25387,6.501618 c -0.369289,0.212457 -0.849809,0.163066 -1.187916,0.08394 -0.338028,-0.07881 -0.791996,-0.247394 -1.034759,-0.602676 l -6.919825,-9.841838 -10.690667,0.836201 6.882298,9.787846 c 1.855774,2.694125 5.733984,4.948123 10.381912,6.03293 4.660326,1.087425 9.120716,0.771823 11.937017,-0.84777 z"
         fill="#f1f6f7"
         id="path331" />
      <path
         inkscape:original-d="m 322.219,406.44 c 0.797,1.367 0.447,2.558 0.013,3.316 -0.434,0.758 -1.283,1.664 -2.81,1.67 L 271,411.44 l 0.008,30 48.479,-0.013 c 12.045,-0.048 22.806,-6.319 28.786,-16.774 5.98,-10.455 5.931,-22.91 -0.086,-33.235 l -21.866,-38.067 -26.014,14.942 z"
         d="m 59.593638,73.984856 c 0.612685,0.141026 0.903247,0.404311 1.038972,0.600278 0.135726,0.195967 0.221033,0.4746 -0.132735,0.680992 l -11.27312,6.512731 9.374,5.445385 11.28678,-6.520141 c 2.790343,-1.628131 3.337536,-4.213436 1.464088,-6.915571 -1.873455,-2.702145 -5.77593,-4.956804 -10.402953,-6.022353 l -16.985177,-3.971285 -1.39062,6.210356 z"
         fill="#b3d1d6"
         id="path333" />
    </g>
    <g
       inkscape:path-effect="#path-effect948"
       transform="matrix(0.1800731,0,0,0.1800731,-228.15146,23.429192)"
       id="g942">
      <path
         inkscape:original-d="M 506.74001,261.26001 A 250.74001,250.74001 0 0 1 256,512.00002 250.74001,250.74001 0 0 1 5.2599945,261.26001 250.74001,250.74001 0 0 1 256,10.520004 250.74001,250.74001 0 0 1 506.74001,261.26001"
         d="m 242.33147,544.05272 c 26.00826,15.11378 19.38301,43.36279 -14.79789,63.09592 -34.1809,19.73313 -82.97385,23.47786 -108.98211,8.36408 -26.008249,-15.11378 -19.383006,-43.36279 14.7979,-63.09592 34.1809,-19.73313 82.97385,-23.47786 108.9821,-8.36408"
         style="fill:#80d5ff"
         id="circle815" />
      <path
         inkscape:original-d="m 429.239,376.104 c 1.164,1.926 1.178,4.393 0.038,6.332 -23.463,39.887 -70.177,54.525 -109.494,37.02 -32.93,-14.661 -33.223,-64.015 -0.47,-79.066 39.059,-17.95 85.962,-3.939 109.926,35.714 z"
         style="fill:#abe84b"
         d="m 244.77108,567.63062 c 0.64904,0.0443 1.11583,0.31159 1.19861,0.68566 1.69992,7.69673 -7.08127,15.95099 -20.07352,19.64309 -10.88161,3.09235 -20.22322,-2.25242 -14.96559,-8.56234 6.26968,-7.52491 20.47816,-12.67934 33.8405,-11.76641 z"
         id="path817" />
      <path
         inkscape:original-d="m 429.239,376.104 c -2.326,-3.849 -4.915,-7.5 -7.728,-10.939 -24.576,35.987 -68.729,48.245 -106.061,31.624 -9.59,-4.27 -16.391,-11.491 -20.435,-19.942 -1.071,17.093 7.201,34.787 24.768,42.608 39.269,17.483 86.003,2.915 109.494,-37.02 1.141,-1.939 1.126,-4.406 -0.038,-6.331 z"
         style="fill:#95db1b"
         d="m 244.77108,567.63062 c -1.29701,-0.0886 -2.62176,-0.11818 -3.96197,-0.0927 0.69273,7.42967 -7.90333,15.05924 -20.23959,18.56496 -3.16906,0.90053 -6.20394,1.08155 -8.78932,0.73547 2.94593,2.01815 8.31085,2.77054 14.11579,1.12087 12.97627,-3.68766 21.77554,-11.93713 20.07351,-19.64309 -0.0825,-0.37421 -0.54957,-0.64132 -1.19842,-0.68555 z"
         id="path819" />
      <g
         id="g825">
	<path
   inkscape:original-d="m 263.512,436.774 c -0.794,0 -1.6,-0.109 -2.4,-0.34 -4.602,-1.324 -7.259,-6.126 -5.936,-10.729 13.046,-45.363 67.356,-75.471 136.41,-59.636 4.667,1.07 7.583,5.722 6.512,10.389 -1.07,4.667 -5.726,7.579 -10.388,6.512 -59.66,-13.683 -105.326,10.859 -115.871,47.528 -1.092,3.801 -4.56,6.276 -8.327,6.276 z"
   style="fill:#8dc610"
   d="m 215.25938,597.86798 c -0.19599,0.11314 -0.4154,0.2161 -0.65625,0.30489 -1.38457,0.51127 -2.94227,0.3658 -3.48022,-0.3251 -5.2996,-6.80998 2.45104,-17.83506 22.46961,-25.94689 1.35291,-0.54826 2.94637,-0.45606 3.55854,0.20591 0.61241,0.66183 0.0101,1.64312 -1.34103,2.191 -17.29568,7.00807 -23.9581,16.19392 -19.67402,21.69864 0.44434,0.57045 0.0532,1.33476 -0.87663,1.87155 z"
   id="path821" />

	<path
   inkscape:original-d="m 263.391,286.378 c -4.788,0 -8.67,3.881 -8.67,8.67 v 216.936 c 0.427,0.002 0.851,0.016 1.279,0.016 5.397,0 10.748,-0.19 16.06,-0.526 V 295.047 c 0,-4.788 -3.881,-8.669 -8.669,-8.669 z"
   style="fill:#8dc610"
   d="m 186.98326,581.47091 c -1.18182,0.68228 -1.41111,1.65903 -0.51167,2.18171 l 40.74329,23.67653 c 0.10577,-0.0606 0.21305,-0.11952 0.3187,-0.18051 1.33213,-0.76906 2.61723,-1.55231 3.86529,-2.34593 l -40.6477,-23.62098 c -0.89924,-0.52256 -2.58609,-0.3931 -3.76791,0.28918 z"
   id="path823" />

</g>
      <path
         inkscape:original-d="m 242.611,260.229 v 26.305 c 0,11.554 9.366,20.92 20.92,20.92 11.554,0 20.92,-9.366 20.92,-20.92 v -26.305 z"
         style="fill:#647892"
         d="m 176.94304,581.5781 4.94041,2.87095 c 2.16998,1.26101 6.24084,0.94858 9.0927,-0.69784 2.85187,-1.64643 3.40462,-4.00328 1.23464,-5.26429 l -4.94041,-2.87094 z"
         id="path827" />
      <path
         inkscape:original-d="M 263.531,286.535 V 260.23 h -20.92 v 26.305 c 0,11.554 9.366,20.92 20.92,20.92 3.815,0 7.38,-1.038 10.46,-2.821 -6.247,-3.62 -10.46,-10.36 -10.46,-18.099 z"
         style="fill:#4d6682"
         d="m 187.0473,581.46809 -4.9404,-2.87094 -5.16367,2.98106 4.9404,2.87095 c 2.16999,1.26101 6.24084,0.94858 9.09271,-0.69784 0.94166,-0.54363 1.62665,-1.16493 2.05202,-1.79842 -2.22183,0.4951 -4.52757,0.35983 -5.98106,-0.48481 z"
         id="path829" />
      <path
         inkscape:original-d="M 354.899,152.998 V 85.937 H 171.882 v 67.061 c 0,34.236 19.049,65.3 48.984,81.033 3.947,2.075 6.413,6.167 6.417,10.626 0.005,5.779 0.011,12.756 0.016,12.759 0,3.469 2.812,6.281 6.281,6.281 h 0.281 59.058 0.281 c 3.469,0 6.281,-2.812 6.281,-6.281 0.006,-0.002 0.011,-6.98 0.017,-12.759 0.004,-4.29 2.212,-8.405 6.729,-10.797 29.59,-15.713 48.672,-46.549 48.672,-80.862 z"
         style="fill:#7389a0"
         d="m 184.51969,553.87401 -12.59489,-7.31908 -45.17397,26.07959 12.59489,7.31908 c 6.42995,3.73654 16.96601,4.41243 27.3097,1.86386 1.36395,-0.33597 2.74116,-0.24077 3.5796,0.24532 1.0866,0.63001 2.39845,1.39063 2.40025,1.39024 0.65152,0.37861 1.87373,0.28481 2.72999,-0.20952 l 0.0693,-0.04 14.57725,-8.41566 0.0694,-0.04 c 0.85625,-0.49432 1.02221,-1.20193 0.37069,-1.58054 0.001,-0.001 -1.30822,-0.76337 -2.39211,-1.39495 -0.80472,-0.46878 -1.03257,-1.23253 -0.36689,-2.13726 4.35258,-5.93145 3.27119,-12.01606 -3.17322,-15.761 z"
         id="path831" />
      <path
         inkscape:original-d="m 258.825,257.416 c -0.006,-0.002 -0.011,-6.98 -0.016,-12.759 -0.004,-4.236 -2.166,-8.385 -6.729,-10.797 -29.951,-15.909 -48.672,-46.942 -48.672,-80.863 v -67.06 h -31.525 v 67.061 c 0,34.619 19.409,65.505 48.984,81.033 3.947,2.075 6.413,6.167 6.417,10.626 0.005,5.779 0.011,12.756 0.016,12.759 0,3.469 2.812,6.281 6.282,6.281 h 0.281 31.245 c -3.471,0 -6.283,-2.812 -6.283,-6.281 z"
         style="fill:#647892"
         d="m 180.41681,578.96062 c -0.002,6.4e-4 -1.31364,-0.76023 -2.40025,-1.39024 -0.79656,-0.46175 -2.10944,-0.60649 -3.68872,-0.21952 -10.3807,2.53164 -20.82998,1.81239 -27.20076,-1.88977 l -12.59471,-7.31897 -7.7813,4.49226 12.5949,7.31908 c 6.50188,3.77834 17.09337,4.38351 27.3097,1.86386 1.36394,-0.33598 2.74115,-0.24077 3.5796,0.24532 1.0866,0.63001 2.39845,1.39063 2.40025,1.39024 0.65152,0.37861 1.87373,0.28481 2.73023,-0.20966 l 0.0694,-0.04 7.71218,-4.45236 c -0.85674,0.49461 -2.07896,0.58841 -2.73048,0.2098 z"
         id="path833" />
      <g
         id="g839">
	<path
   inkscape:original-d="M 335.273,85.937 V 16.66 C 335.273,7.459 327.814,0 318.613,0 c -9.201,0 -16.66,7.458 -16.66,16.66 v 69.277 z"
   style="fill:#fcd597"
   d="m 167.08053,549.3516 -13.01109,-7.56094 c -1.72806,-1.0042 -4.97006,-0.75539 -7.24113,0.55574 -2.27108,1.31113 -2.71148,3.18799 -0.98322,4.1923 l 13.01108,7.56094 z"
   id="path835" />

	<path
   inkscape:original-d="M 224.826,85.937 V 16.66 C 224.826,7.459 217.368,0 208.166,0 c -9.201,0 -16.66,7.458 -16.66,16.66 v 69.277 z"
   style="fill:#fcd597"
   d="m 139.81896,565.0901 -13.01108,-7.56094 c -1.72807,-1.0042 -4.96981,-0.75553 -7.24114,0.55574 -2.27108,1.31112 -2.71147,3.18799 -0.98322,4.1923 l 13.01109,7.56094 z"
   id="path837" />

</g>
      <g
         id="g845">
	<path
   inkscape:original-d="m 318.614,53.485 c -9.202,0 -16.66,-7.459 -16.66,-16.66 v 49.111 h 33.319 v -49.11 c 0,9.201 -7.458,16.659 -16.659,16.659 z"
   style="fill:#fac149"
   d="m 156.8737,548.18364 c -2.27132,1.31127 -5.51307,1.55994 -7.24113,0.55574 l 9.22366,5.36001 8.22411,-4.7479 -9.22347,-5.3599 c 1.72806,1.00421 1.28791,2.88093 -0.98317,4.19205 z"
   id="path841" />

	<path
   inkscape:original-d="m 208.166,53.485 c -9.201,0 -16.66,-7.459 -16.66,-16.66 v 49.111 h 33.319 v -49.11 c 0.001,9.201 -7.457,16.659 -16.659,16.659 z"
   style="fill:#fac149"
   d="m 129.61189,563.92229 c -2.27107,1.31112 -5.51307,1.55994 -7.24113,0.55573 l 9.22366,5.36001 8.22411,-4.7479 -9.22347,-5.3599 c 1.72831,1.00406 1.28816,2.88079 -0.98317,4.19206 z"
   id="path843" />

</g>
      <path
         inkscape:original-d="M 171.88,85.936996 H 354.90001 V 118.017 H 171.88 Z"
         d="m 126.75033,572.63481 45.17472,-26.08003 6.02502,3.50124 -45.17471,26.08002 z"
         style="fill:#647892"
         id="rect847" />
      <g
         id="g853">
	<path
   inkscape:original-d="m 171.88,85.936996 h 31.525 V 118.017 H 171.88 Z"
   d="m 126.75033,572.63481 7.7813,-4.49226 6.02502,3.50123 -7.78129,4.49226 z"
   style="fill:#4d6682"
   id="rect849" />

	<path
   inkscape:original-d="M 354.899,94.606 H 171.882 c -4.788,0 -8.67,-3.881 -8.67,-8.67 0,-4.789 3.882,-8.67 8.67,-8.67 h 183.017 c 4.788,0 8.67,3.881 8.67,8.67 0,4.789 -3.882,8.67 -8.67,8.67 z"
   style="fill:#4d6682"
   d="m 173.55295,547.50107 -45.17398,26.07959 c -1.18182,0.68228 -2.86891,0.81189 -3.76834,0.28921 -0.89944,-0.52267 -0.67014,-1.49943 0.51167,-2.18171 l 45.17398,-26.07959 c 1.18182,-0.68228 2.86891,-0.81188 3.76834,-0.28921 0.89944,0.52267 0.67015,1.49943 -0.51167,2.18171 z"
   id="path851" />

</g>
      <path
         inkscape:original-d="m 196.145,85.937 c 0,-4.789 3.882,-8.67 8.67,-8.67 h -32.933 c -4.788,0 -8.67,3.881 -8.67,8.67 0,4.789 3.882,8.67 8.67,8.67 h 32.933 c -4.788,-0.001 -8.67,-3.882 -8.67,-8.67 z"
         style="fill:#44596d"
         d="m 132.73965,569.17709 c -0.89944,-0.52268 -0.67014,-1.49943 0.51167,-2.18171 l -8.12883,4.69289 c -1.18182,0.68228 -1.41111,1.65904 -0.51167,2.18171 0.89943,0.52268 2.58652,0.39307 3.76834,-0.28921 l 8.12883,-4.69289 c -1.182,0.68217 -2.8691,0.81177 -3.76834,0.28921 z"
         id="path855" />
      <path
         inkscape:original-d="m 280.05001,174.82001 a 16.66,16.66 0 0 1 -16.66,16.66 16.66,16.66 0 0 1 -16.66,-16.66 16.66,16.66 0 0 1 16.66,-16.66 16.66,16.66 0 0 1 16.66,16.66"
         d="m 170.14321,566.92152 c 1.72807,1.00421 1.28787,2.88117 -0.98322,4.1923 -2.27109,1.31114 -5.51306,1.55995 -7.24113,0.55574 -1.72808,-1.00421 -1.28788,-2.88117 0.98322,-4.1923 2.27109,-1.31114 5.51306,-1.55995 7.24113,-0.55574"
         style="fill:#efefef"
         id="circle857" />
      <path
         inkscape:original-d="m 54.018,353.508 c -2.048,2.292 -2.69,5.6 -1.648,8.491 21.435,59.467 80.453,90.906 137.655,77.326 47.907,-11.373 60.754,-77.557 20.581,-106.027 C 162.7,299.347 96.194,306.323 54.018,353.508 Z"
         style="fill:#abe84b"
         d="m 147.91171,618.63279 c -0.075,0.54199 0.38778,0.99451 1.18794,1.16155 16.45943,3.43582 36.93144,-1.54287 48.50008,-11.17618 9.68887,-8.06792 0.4297,-17.12195 -14.8332,-14.50461 -18.20103,3.12109 -33.30648,13.35944 -34.85482,24.51924 z"
         id="path859" />
      <path
         inkscape:original-d="m 204.024,410.046 c -55.139,13.091 -111.7,-15.535 -135.073,-70.758 -5.313,4.305 -10.315,9.053 -14.933,14.22 -2.048,2.292 -2.69,5.6 -1.648,8.491 21.435,59.467 80.454,90.906 137.655,77.326 24.105,-5.723 39.328,-25.323 43.393,-47.012 -7.348,8.43 -17.24,14.847 -29.394,17.733 z"
         style="fill:#95db1b"
         d="m 195.55614,603.4278 c -11.15127,9.28597 -30.48851,14.22155 -46.62922,11.52509 -0.50288,1.22694 -0.84578,2.45792 -1.01521,3.6799 -0.075,0.54199 0.38778,0.99451 1.18794,1.16155 16.45943,3.43582 36.93169,-1.54301 48.50008,-11.17618 4.87498,-4.05953 4.95133,-8.36794 1.88123,-11.31434 -0.23044,1.96713 -1.46689,4.07708 -3.92482,6.12398 z"
         id="path861" />
      <path
         inkscape:original-d="m 263.38,473.802 c -4.421,0 -8.197,-3.365 -8.621,-7.855 -4.999,-52.882 -61.364,-99.32 -146.848,-95.913 -4.762,0.176 -8.817,-3.535 -9.007,-8.32 -0.19,-4.784 3.535,-8.817 8.319,-9.006 42.335,-1.677 86.182,7.977 120.123,34.287 26.378,20.451 41.827,47.187 44.676,77.32 0.451,4.767 -3.048,8.997 -7.815,9.448 -0.278,0.025 -0.553,0.039 -0.827,0.039 z"
         style="fill:#8dc610"
         d="m 222.18112,601.92805 c -1.09124,0.62998 -2.65525,0.8008 -3.60319,0.37118 -11.1658,-5.05923 -33.79997,-2.09559 -54.26006,10.45757 -1.14234,0.69778 -2.84021,0.87059 -3.78579,0.37543 -0.94539,-0.49506 -0.7834,-1.46603 0.36193,-2.16836 10.13456,-6.2157 22.77043,-11.41017 36.08942,-13.37521 10.35182,-1.52678 19.18644,-0.81026 25.54901,2.0725 1.00662,0.45601 0.93741,1.41627 -0.15452,2.14479 -0.0639,0.0423 -0.12917,0.083 -0.1968,0.1221 z"
         id="path863" />
      <g
         id="g865">
</g>
      <g
         id="g867">
</g>
      <g
         id="g869">
</g>
      <g
         id="g871">
</g>
      <g
         id="g873">
</g>
      <g
         id="g875">
</g>
      <g
         id="g877">
</g>
      <g
         id="g879">
</g>
      <g
         id="g881">
</g>
      <g
         id="g883">
</g>
      <g
         id="g885">
</g>
      <g
         id="g887">
</g>
      <g
         id="g889">
</g>
      <g
         id="g891">
</g>
      <g
         id="g893">
</g>
    </g>
    <g
       inkscape:path-effect="#path-effect1100"
       transform="matrix(0.2150823,0,0,0.2150823,-259.9919,45.481971)"
       id="g1080">
      <path
         inkscape:original-d="m 212.5,429.401 h 87 l 30,61 h -147 z"
         d="m 234.70603,291.08575 44.04523,-25.42904 26.64459,-2.11067 -74.42087,42.96594 z"
         style="fill:#e7e7e7"
         id="polygon950" />
      <g
         id="g956">
	<path
   inkscape:original-d="m 256,490.401 v -61 h 43.5 l 30,61 z"
   d="m 268.18519,285.02914 -11.45663,-6.65786 22.0227,-12.71457 26.64459,-2.11067 z"
   style="fill:#d3d3d8"
   id="polygon952" />

	<path
   inkscape:original-d="m 151,482 h 210 v 30 H 151 Z"
   d="m 213.45003,314.80194 106.31561,-61.37998 5.63423,3.27447 -106.31535,61.37971 z"
   style="fill:#d3d3d8"
   id="rect954" />

</g>
      <path
         inkscape:original-d="m 256,482 h 105 v 30 H 256 Z"
         d="m 266.60738,284.11222 53.15826,-30.69026 5.63423,3.27447 -53.15813,30.69012 z"
         style="fill:#babac0"
         id="rect958" />
      <g
         id="g964">
	<path
   inkscape:original-d="m 241,0 h 30 v 61 h -30 z"
   d="m 168.48246,235.88613 15.18856,-8.76918 11.45771,6.65856 -15.18848,8.7691 z"
   style="fill:#ff9f00"
   id="rect960" />

	<path
   inkscape:original-d="m 106,151 h 60 v 30 h -60 z"
   d="m 128.49818,291.82834 30.37613,-17.53763 5.6349,3.27446 -30.37606,17.53756 z"
   style="fill:#ff9f00"
   id="rect962" />

</g>
      <path
         inkscape:original-d="m 346,151 h 60 v 30 h -60 z"
         d="m 250.0045,221.67678 30.37733,-17.53833 5.63459,3.27477 -30.37725,17.53825 z"
         style="fill:#f77e00"
         id="rect966" />
      <path
         inkscape:original-d="m 130.541,55.535 h 59.993 v 29.997 h -59.993 z"
         d="M 27.074227,-74.523729 42.401238,-100.83829 43.646287,-90.041078 28.31921,-63.72642 Z"
         transform="matrix(-0.7071,-0.7071,0.7071,-0.7071,224.1807,233.9256)"
         style="fill:#ff9f00"
         id="rect968" />
      <path
         inkscape:original-d="m 336.46201,40.535999 h 29.997 V 100.529 h -29.997 z"
         d="m 327.3226,-113.69447 7.66372,-13.15761 2.48982,21.59535 -7.66378,13.157709 z"
         transform="matrix(-0.7071,-0.7071,0.7071,-0.7071,550.1064,368.9261)"
         style="fill:#f77e00"
         id="rect970" />
      <path
         inkscape:original-d="m 256,91 c -32.999,0 -60,26.999 -60,60 0,32.999 27.001,60 60,60 32.999,0 60,-27.001 60,-60 0,-33.001 -27.001,-60 -60,-60 z"
         style="fill:#ffb64c"
         d="m 193.16938,241.43471 c -16.70673,9.64565 -25.30547,20.48503 -19.1069,24.08712 6.19816,3.60184 24.93955,-1.34327 41.64611,-10.98876 16.70666,-9.64554 25.30534,-20.48519 19.10735,-24.0872 -6.19841,-3.60225 -24.93973,1.34314 -41.64656,10.98884 z"
         id="path972" />
      <path
         inkscape:original-d="m 256,0 h 15 v 61 h -15 z"
         d="m 176.07673,231.50155 7.59429,-4.3846 11.45771,6.65856 -7.59425,4.38456 z"
         style="fill:#f77e00"
         id="rect974" />
      <path
         inkscape:original-d="M 256,211 V 91 c 32.999,0 60,26.999 60,60 0,32.999 -27.001,60 -60,60 z"
         style="fill:#ff9f00"
         d="m 215.70859,254.53307 -22.53921,-13.09836 c 16.70683,-9.6457 35.44815,-14.59109 41.64656,-10.98884 6.19799,3.60201 -2.40069,14.44166 -19.10735,24.0872 z"
         id="path976" />
      <path
         inkscape:original-d="M 416.8,241 H 95.2 L 25.3,451 h 461.4 z"
         style="fill:#9ed0ff"
         d="m 302.7534,210.80582 -162.81805,94.00233 4.05644,43.34988 233.59119,-134.86119 z"
         id="path978" />
      <path
         inkscape:original-d="m 256,241 h 160.8 l 69.9,210 H 256 Z"
         d="m 221.3433,257.80761 81.4101,-47.00179 74.82958,2.49102 -116.79781,67.43188 z"
         style="fill:#73bcff"
         id="polygon980" />
      <path
         inkscape:original-d="M 395.2,271 H 116.8 L 66.7,421 h 378.6 z"
         style="fill:#3aaaff"
         d="m 297.45208,220.39425 -140.94661,81.3748 2.81033,31.01459 191.67284,-110.66032 z"
         id="path982" />
      <path
         inkscape:original-d="m 256,271 h 139.2 l 50.1,150 H 256 Z"
         d="m 226.97797,261.08212 70.47411,-40.68787 53.53656,1.72907 -95.83791,55.33102 z"
         style="fill:#0095ff"
         id="polygon984" />
      <path
         inkscape:original-d="M 66.099998,331 H 445.89999 v 30 H 66.099998 Z"
         d="m 142.10779,323.13646 192.2818,-111.0125 5.63431,3.27468 -192.28132,111.01203 z"
         style="fill:#9ed0ff"
         id="rect986" />
      <path
         inkscape:original-d="m 341.21,253.056 35.991,180 -29.414,5.888 -35.991,-180 z"
         d="m 266.74764,234.21687 52.02805,9.12742 -13.78576,9.24018 -52.02813,-9.12724 z"
         style="fill:#73bcff"
         id="polygon988" />
      <g
         id="g994">
	<path
   inkscape:original-d="m 170.79,253.056 29.414,5.888 -35.991,180 -29.414,-5.888 z"
   d="m 180.46834,284.02984 15.9973,-7.95482 15.58689,30.16582 -15.99694,7.95457 z"
   style="fill:#9ed0ff"
   id="polygon990" />

	<path
   inkscape:original-d="m 241,241 h 30 v 210 h -30 z"
   d="m 213.74918,262.19204 15.18826,-8.76888 39.44173,22.92125 -15.18799,8.76861 z"
   style="fill:#9ed0ff"
   id="rect992" />

</g>
      <g
         id="g1000">
	<path
   inkscape:original-d="m 256,331 h 189.89999 v 30 H 256 Z"
   d="m 238.24719,267.63107 96.1424,-55.50711 5.63431,3.27468 -96.14216,55.50688 z"
   style="fill:#73bcff"
   id="rect996" />

	<path
   inkscape:original-d="m 256,241 h 15 v 210 h -15 z"
   d="m 221.3433,257.80761 7.59414,-4.38445 39.44173,22.92125 -7.594,4.38431 z"
   style="fill:#73bcff"
   id="rect998" />

</g>
      <g
         id="g1002">
</g>
      <g
         id="g1004">
</g>
      <g
         id="g1006">
</g>
      <g
         id="g1008">
</g>
      <g
         id="g1010">
</g>
      <g
         id="g1012">
</g>
      <g
         id="g1014">
</g>
      <g
         id="g1016">
</g>
      <g
         id="g1018">
</g>
      <g
         id="g1020">
</g>
      <g
         id="g1022">
</g>
      <g
         id="g1024">
</g>
      <g
         id="g1026">
</g>
      <g
         id="g1028">
</g>
      <g
         id="g1030">
</g>
    </g>
  </g>
</svg>
