<svg xmlns="http://www.w3.org/2000/svg" xmlns:xlink="http://www.w3.org/1999/xlink" width="279.613" height="164.33" viewBox="0 0 279.613 164.33">
  <defs>
    <linearGradient id="linear-gradient" x1="-0.074" y1="-0.159" x2="-1.354" y2="0.984" gradientUnits="objectBoundingBox">
      <stop offset="0" stop-color="#fff"/>
      <stop offset="0.58" stop-color="#dae4fc"/>
      <stop offset="1" stop-color="#bdcefa"/>
    </linearGradient>
  </defs>
  <g id="layer1" transform="translate(96.719 -52.393)">
    <g id="g199" transform="translate(-100.159 9.42)">
      <path id="path37" d="M190.056,157.69V147.175a6.025,6.025,0,0,1,6.025-6.024h7.268a6,6,0,0,0-2.2-.415H9.464A6.024,6.024,0,0,0,3.44,146.76v10.522a6.024,6.024,0,0,0,6.024,6.025H193.876A6.024,6.024,0,0,1,190.056,157.69Z" fill="#e5ffd5"/>
      <rect id="rect39" width="216.421" height="22.436" rx="6.024" transform="translate(37.306 162.378)" fill="#e5ffd5"/>
      <rect id="rect41" width="224.269" height="22.436" rx="6.024" transform="translate(58.784 120.426)" fill="#e5ffd5"/>
      <rect id="rect43" width="206.92" height="22.436" rx="6.024" transform="translate(26.156 98.051)" fill="#e5ffd5"/>
      <g id="g51" style="isolation: isolate">
        <path id="polygon45" d="M99.5,191.561l-.116-19.83,22.256-12.851Z" fill="#4ac484"/>
        <path id="polygon47" d="M99.5,191.561l-2.91-1.693-.116-19.83,2.91,1.693Z" fill="#0c552f"/>
        <path id="polygon49" d="M99.379,171.731l-2.91-1.693,22.256-12.848,2.91,1.691Z" fill="#b380ff"/>
      </g>
      <g id="g59" style="isolation: isolate">
        <path id="polygon53" d="M83.758,180.748l-.2-72.045,92.293-53.286.2,72.048L121.635,158.88,99.379,171.731Z" fill="#4ac484"/>
        <path id="polygon55" d="M83.758,180.748l-2.91-1.691-.2-72.045,2.91,1.691Z" fill="#0c552f"/>
        <path id="polygon57" d="M83.554,108.7l-2.91-1.691,92.293-53.286,2.91,1.691Z" fill="#0c552f"/>
      </g>
      <g id="g67" style="isolation: isolate">
        <path id="polygon61" d="M234.532,125.453l-13.139-19.391,13.21,7.625Z" fill="#46c5e5"/>
        <path id="polygon63" d="M234.6,113.687l2.91-1.691-.071,11.766-2.91,1.691Z" fill="#006680"/>
        <path id="polygon65" d="M221.393,106.062l2.91-1.691L237.513,112l-2.91,1.691Z" fill="#0cf"/>
      </g>
      <g id="g75" style="isolation: isolate">
        <path id="polygon69" d="M189.1,87.42l.122-42.753,54.768,31.62-.122,42.753-9.268-5.352-13.21-7.625Z" fill="#46c5e5"/>
        <path id="polygon71" d="M243.993,76.286l2.91-1.693-.122,42.756-2.91,1.691Z" fill="#006680"/>
        <path id="polygon73" d="M189.225,44.666l2.91-1.693L246.9,74.593l-2.91,1.693Z" fill="#006680"/>
      </g>
      <path id="path77" d="M131.986,109.75c-.029.28.2.529.572.759.106.069-.013-1.516.355-1.251.106.077,5.191,4.037,8.03,3.3a.6.6,0,0,0,.423-.611v-.638c.04-.72-1.032-1.818-2.646-3.405-1.794-1.746-2.937-2.836-5.614-1.291-.765.442-1.074.773-1.077,1.058Z"/>
      <path id="path79" d="M138.709,107.912c2.164,2.117,3.347,3.358,2.236,4s-3.334-.325-5.614-2.048c-2-1.508-4.913-1.7-2.236-3.241S136.915,106.165,138.709,107.912Z" fill="#484968"/>
      <path id="path81" d="M136.55,106.713l-.14-16.642a1.953,1.953,0,0,0-1.251-1.807l-1.3-.5L128.379,91.4l2.675,1.36a25.357,25.357,0,0,0,.815,8.914s.918,1.876.738,6.241c0,0,2.918.913,3.942-1.2Z" fill="#f1ac85"/>
      <path id="path83" d="M124,113.732c-.029.28.2.529.571.759.106.069-.013-1.516.355-1.251.106.077,5.191,4.037,8.03,3.3a.6.6,0,0,0,.423-.611V115.3c.04-.72-1.032-1.818-2.646-3.405-1.794-1.746-2.937-2.836-5.614-1.291-.765.442-1.074.773-1.077,1.058Z"/>
      <path id="path85" d="M130.7,111.894c2.164,2.117,3.347,3.358,2.236,4s-3.334-.325-5.614-2.048c-2-1.508-4.913-1.7-2.236-3.241S128.922,110.147,130.7,111.894Z" fill="#484968"/>
      <path id="path87" d="M128.538,110.888,128.38,91.4l-6.443,2.088,1.106,3.175a23.468,23.468,0,0,0,.815,8.541s.918,1.876.738,6.241c0,0,2.363,1.344,3.942-.558Z" fill="#f1ac85"/>
      <path id="path89" d="M122.765,71.566s7.175-6.525,2.8-18.132l-3.352,12.049Z" fill="#943bbb"/>
      <path id="path91" d="M131.274,87.468h0a2.117,2.117,0,0,1-2.622-1.426L122.9,66.436a2.117,2.117,0,0,1,1.426-2.622h0a2.117,2.117,0,0,1,2.622,1.426L132.7,84.846a2.117,2.117,0,0,1-1.426,2.622Z" fill="#f1ac85"/>
      <path id="path93" d="M125.411,82.253l9.752,6.011s-3.4-.831-12.134,8.4l-9.578-5.535Z" fill="#8800bf"/>
      <path id="path95" d="M114.714,91.973a.582.582,0,0,0,.265.09c1.413.108,6.5-1,11.578-6.726a2.659,2.659,0,0,0,.688-1.648V67.433a2.679,2.679,0,0,0-1.14-2.482l-3.823-2.23a2.67,2.67,0,0,0-2.723.249l-5.212,3.008a8.457,8.457,0,0,0-3.826,6.628V88.957a.828.828,0,0,0,.368.794Z" fill="#60b6ff"/>
      <path id="path97" d="M115.291,66.992a1.363,1.363,0,0,0,.794,1.119,4.212,4.212,0,0,0,3.813,0,1.363,1.363,0,0,0,.794-1.119V63.449a1.363,1.363,0,0,0-.794-1.119,4.212,4.212,0,0,0-3.813,0,1.363,1.363,0,0,0-.794,1.119Z" fill="#dd936f"/>
      <circle id="circle99" cx="7.421" cy="7.421" r="7.421" transform="translate(110.563 50.376)" fill="#f1ac85"/>
      <path id="path101" d="M120.185,71.566s-5.519-6.085-1.691-17.346l6.879,2.365s2.365-5.858-5.408-7.548c0,0-5.18-1.127-6.985,3.154,0,0-4.167.339-2.59,8.9-.005,0,.22,8.112,9.795,10.477Z" fill="#943bbb"/>
      <path id="polygon103" d="M138.24,87.375l-13.98,8.046-10.721-5.847,14.306-8.186Z" fill="#bdcefa"/>
      <path id="polygon105" d="M138.24,87.375l2.2-14.015-15.518,8.948-.661,13.113Z" fill="url(#linear-gradient)"/>
      <path id="path107" d="M127.03,87.96h0a2.117,2.117,0,0,1-2.977-.235L110.859,72.265a2.117,2.117,0,0,1,.235-2.977h0a2.117,2.117,0,0,1,2.977.235l13.192,15.459A2.117,2.117,0,0,1,127.03,87.96Z" fill="#f1ac85"/>
      <path id="path109" d="M221.242,201.3c-.053.931,1.352,2.238,3.49,3.471,2.847,1.643,3.855,3.725,7.371,1.693,1.005-.582,1.429-1.042,1.453-1.447v-2.188c.1-1.019-2.342-1.651-4.387-2.831-2.847-1.643-5.911-2.537-7.371-1.693a.96.96,0,0,0-.556.794Z"/>
      <path id="path111" d="M224.734,202.562c-2.847-1.643-4.395-3.413-2.934-4.257s4.527.05,7.371,1.693,6.45,2.225,2.934,4.257S227.579,204.206,224.734,202.562Z" fill="#2d0d60"/>
      <path id="path113" d="M229.153,195.85c-.053.931,1.352,2.238,3.49,3.471,2.847,1.643,3.855,3.725,7.371,1.693,1.008-.582,1.429-1.042,1.453-1.447v-2.191c.1-1.016-2.342-1.651-4.387-2.831-2.847-1.643-5.911-2.537-7.371-1.693a.96.96,0,0,0-.556.794Z"/>
      <path id="path115" d="M232.643,197.112c-2.847-1.643-4.395-3.413-2.934-4.257s4.527.05,7.371,1.693,6.45,2.225,2.934,4.257S235.489,198.755,232.643,197.112Z" fill="#2d0d60"/>
      <path id="path117" d="M231.243,175.3h0a2.342,2.342,0,0,1-1.535-2.924l5.427-17.415a2.342,2.342,0,0,1,2.924-1.535h0a2.342,2.342,0,0,1,1.535,2.924l-5.427,17.415A2.342,2.342,0,0,1,231.243,175.3Z" fill="#fcc4b7"/>
      <path id="path119" d="M239.961,159.47l1.752-5.62a3.622,3.622,0,0,0-2.381-4.522h0a3.622,3.622,0,0,0-4.522,2.381l-1.752,5.62S234.492,161.267,239.961,159.47Z" fill="#0382ff"/>
      <path id="path121" d="M233.457,201.835a1.529,1.529,0,0,0,.164-.706v-24.4c0-1.543-1.587-2.8-3.537-2.8h0c-1.945,0-3.537,1.262-3.537,2.8v26.537a.889.889,0,0,0,.63.852C228.534,204.52,231.751,205.108,233.457,201.835Z" fill="#293677"/>
      <path id="path123" d="M241.387,196.115a1.527,1.527,0,0,0,.148-.712l-.529-24.4c-.034-1.542-1.654-2.77-3.6-2.728h0c-1.945.042-3.508,1.339-3.474,2.881l.582,26.529a.889.889,0,0,0,.648.839C236.535,198.909,239.752,199.425,241.387,196.115Z" fill="#293677"/>
      <path id="path125" d="M227.713,181.11a.646.646,0,0,0,.3.1c1.564.122,7.183-1.1,12.808-7.44a2.942,2.942,0,0,0,.762-1.823V153.954a2.954,2.954,0,0,0-1.262-2.744l-4.233-2.466a2.978,2.978,0,0,0-3.014.265l-5.768,3.328a9.391,9.391,0,0,0-4.233,7.334v18.089a.918.918,0,0,0,.407.865Z" fill="#bedaff"/>
      <path id="path127" d="M229.351,153.472a1.481,1.481,0,0,0,.87,1.236,4.659,4.659,0,0,0,4.217,0,1.47,1.47,0,0,0,.87-1.236v-3.918a1.481,1.481,0,0,0-.87-1.236,4.659,4.659,0,0,0-4.217,0,1.47,1.47,0,0,0-.87,1.236Z" fill="#dd936f"/>
      <circle id="circle129" cx="8.21" cy="8.21" r="8.21" transform="translate(224.12 135.092)" fill="#fcc4b7"/>
      <path id="path131" d="M223.668,181.039h0a2.342,2.342,0,0,1-2.066-2.577l2.381-17.637a2.342,2.342,0,0,1,2.577-2.066h0a2.342,2.342,0,0,1,2.066,2.577l-2.381,17.637a2.342,2.342,0,0,1-2.577,2.066Z" fill="#fcc4b7"/>
      <path id="path133" d="M229.592,164.331l.64-5.847a3.622,3.622,0,0,0-3.2-3.985h0a3.622,3.622,0,0,0-4,3.191l-.643,5.85S224.568,167.14,229.592,164.331Z" fill="#0382ff"/>
      <path id="path135" d="M236.958,150.787c-2.588,1.508-4.567.362-5.27-.73-1.773-2.746-2.066-.915-3.122-2.207-1.384-2.273-1.074-5.371-2.992-6.8-2.754-2.056-2-6.146,5.183-7.977,9.649-2.461,13.451,9.7,7.429,16.727a3.81,3.81,0,0,1-1.228.99Z" fill="#b25e02" fill-rule="evenodd"/>
      <path id="path137" d="M229.462,148.191a.935.935,0,0,1-1.712-.458,3.4,3.4,0,0,1,.794-2.966.935.935,0,0,1,1.712.458,3.392,3.392,0,0,1-.794,2.966Z" fill="#fcc4b7"/>
      <g id="g233" transform="translate(87.122 60.404)">
        <path id="path201" d="M128.19,21.589l-4.94-2.852a2.219,2.219,0,0,1-1.15-1.566l.016-5.785c0-.5.519-.6,1.156-.234L128.212,14a2.219,2.219,0,0,1,1.15,1.566l-.016,5.785C129.344,21.852,128.827,21.957,128.19,21.589Z" fill="#3a5e88"/>
        <path id="path203" d="M128.212,14l-2.47-1.426-.022,7.585,2.47,1.426c.637.368,1.154.263,1.156-.234l.016-5.785A2.219,2.219,0,0,0,128.212,14Z" fill="#153d53"/>
        <path id="path205" d="M118.31,15.885l-4.94-2.852a2.219,2.219,0,0,1-1.15-1.566l.016-5.785c0-.5.519-.6,1.156-.234l4.94,2.852a2.219,2.219,0,0,1,1.15,1.566l-.016,5.785C119.464,16.148,118.947,16.253,118.31,15.885Z" fill="#3a5e88"/>
        <path id="path207" d="M118.331,8.3l-2.47-1.426-.022,7.585,2.47,1.426c.637.368,1.154.263,1.156-.234l.016-5.785a2.219,2.219,0,0,0-1.15-1.566Z" fill="#153d53"/>
        <path id="path209" d="M139.333,18.366l-9.88-5.7c-3.36-1.94-6.087-5.652-6.08-8.274,0-.5.519-.6,1.156-.234l9.88,5.7c3.36,1.94,6.087,5.652,6.08,8.274,0,.5-.519.6-1.156.234Z" fill="#fbf2f5"/>
        <path id="path211" d="M128.157,33.159,113.337,24.6a2.219,2.219,0,0,1-1.15-1.566l.033-11.569c0-.5.519-.6,1.156-.234l19.76,11.409a2.219,2.219,0,0,1,1.15,1.566l-.006,2.258c-.011,4.027-2.2,6.269-5.306,6.9A1.25,1.25,0,0,1,128.157,33.159Z" fill="#89c8fd"/>
        <g id="g219">
          <path id="path213" d="M133.135,22.641l-7.41-4.278-.038,13.369,2.47,1.426a1.249,1.249,0,0,0,.816.207c3.109-.631,5.295-2.873,5.306-6.9l.006-2.258a2.219,2.219,0,0,0-1.15-1.566Z" fill="#60b6ff"/>
          <path id="path215" d="M118.3,20.706a2.219,2.219,0,0,1-1.15-1.566l0-.964c0-.5.519-.6,1.156-.234a2.219,2.219,0,0,1,1.15,1.566l0,.964c0,.5-.519.6-1.156.234Z" fill="#1eb7d0"/>
          <path id="path217" d="M123.236,23.558a2.219,2.219,0,0,1-1.15-1.566l0-.964c0-.5.519-.6,1.156-.234a2.219,2.219,0,0,1,1.15,1.566l0,.964C124.39,23.82,123.873,23.925,123.236,23.558Z" fill="#1eb7d0"/>
        </g>
        <path id="path221" d="M128.176,26.41a2.219,2.219,0,0,1-1.15-1.566l0-.964c0-.5.519-.6,1.156-.234a2.219,2.219,0,0,1,1.15,1.566l0,.964c0,.5-.519.6-1.156.234Z" fill="#197090"/>
        <path id="path223" d="M133.169,10.944,115.878.962c-2-1.153-3.619-3.361-3.615-4.92s1.633-1.89,3.631-.737l12.35,7.13c3.367,1.944,6.087,5.643,6.08,8.274C134.323,11.207,133.805,11.312,133.169,10.944Z" fill="#e6e7e9"/>
        <path id="path225" d="M150.387,45.993l-22.23-12.835a2.6,2.6,0,0,1-1.064-1.171c-.177-.439-.078-.77.253-.837,2.711-.55,4.617-2.506,4.627-6.017L132,17.091c0-.5.519-.6,1.156-.234l12.35,7.13a2.219,2.219,0,0,1,1.15,1.566L146.63,33.6c-.01,3.511,1.878,7.658,4.578,11.331.329.448.427.892.247,1.125s-.6.21-1.067-.06Z" fill="#fde000"/>
        <path id="path227" d="M146.629,33.6l.023-8.043a2.219,2.219,0,0,0-1.15-1.566l-6.175-3.565-.055,19.154,11.115,6.417c.466.269.887.293,1.067.059s.082-.677-.247-1.125c-2.7-3.674-4.588-7.82-4.578-11.331Z" fill="#fcbf29"/>
        <path id="path229" d="M138.779,31.47c-.569-.551-.8-1.225-.512-1.505l.723-.708-1.437-1.392c-.569-.551-.8-1.225-.512-1.505l1.24-1.215c.286-.28.979-.061,1.548.491s.8,1.225.512,1.505l-.723.708,1.437,1.392c.569.551.8,1.225.512,1.505l-1.241,1.215c-.287.281-.98.06-1.548-.491Z" fill="#153d53"/>
        <path id="path231" d="M139.294,31.862c.422.244.83.3,1.033.1l1.241-1.215c.286-.28.057-.954-.512-1.505l-1.437-1.392.723-.708c.286-.28.057-.954-.512-1.505a2.65,2.65,0,0,0-.515-.392Z" fill="#111310"/>
      </g>
      <g id="g559" transform="translate(71.721 107.325)">
        <path id="path483" d="M52.4,21.47l.042,14.9a2.673,2.673,0,0,1-1.4,1.885L22.859,54.523c-.78.45-1.411.333-1.412-.263l-.042-14.9L36.874,18.576Z" transform="translate(-0.239 -0.255)" fill="#d1d1d1"/>
        <path id="path485" d="M53.056,21.47l.042,14.9a2.673,2.673,0,0,1-1.4,1.885L37.607,46.387l-.079-27.81Z" transform="translate(-0.894 -0.255)" fill="#e6e7e9"/>
        <path id="path487" d="M56.572,20.063c-1.65,2.218-4.318,3.758-5.976,3.45L36.642,20.919,22.748,39.591c-1.641,2.212-4.328,3.763-5.975,3.45S15.11,40.7,16.76,38.478L33.635,15.8a10.129,10.129,0,0,1,2.985-2.672,4.662,4.662,0,0,1,2.99-.778L56.56,15.5C58.217,15.808,58.223,17.846,56.572,20.063Z" fill="#d74379"/>
        <path id="path489" d="M38.044,26.335a1.939,1.939,0,0,0-.79.276,3.424,3.424,0,0,0-.789.635c-.253.283-6.248,6.877-6.237,10.967.012,4.233,6.247,2.689,6.52,2.618a2.1,2.1,0,0,0,.545-.229,3.137,3.137,0,0,0,.545-.4c.272-.243,6.5-5.892,6.484-10.125-.011-4.09-6.024-3.752-6.278-3.742Z" transform="translate(-0.597 1.35)" fill="#98d400"/>
        <path id="path491" d="M44.619,30.077c.012,4.233-6.212,9.882-6.484,10.125a3.141,3.141,0,0,1-.545.4l-.009-3.089-.031-10.9a1.938,1.938,0,0,1,.79-.276c.254-.01,6.267-.348,6.278,3.742Z" transform="translate(-0.895 1.35)" fill="#7fbf00"/>
        <path id="path493" d="M38.914,33.611l.018,6.457a2.673,2.673,0,0,1-1.4,1.884c-.78.45-1.411.333-1.412-.263L36.1,35.233a2.7,2.7,0,0,1,1.406-1.89c.78-.45,1.4-.327,1.4.268Z" transform="translate(-0.836 1.075)" fill="#b35c4b"/>
        <path id="path495" d="M38.973,33.611l.018,6.457a2.673,2.673,0,0,1-1.4,1.884l-.024-8.61C38.35,32.893,38.972,33.015,38.973,33.611Z" transform="translate(-0.895 1.075)" fill="#8b432d"/>
        <path id="path497" d="M57.465,20.063c-1.65,2.218-4.318,3.758-5.976,3.45L37.535,20.919l-.022-7.792a4.662,4.662,0,0,1,2.99-.778L57.453,15.5C59.11,15.808,59.116,17.846,57.465,20.063Z" transform="translate(-0.893)" fill="#ed487d"/>
      </g>
      <g id="g669" transform="translate(140.375 67.388)">
        <path id="path563" d="M29.429,14.642a14.5,14.5,0,0,1-2.889,7.693,10.148,10.148,0,0,0-1.959,5.122l0,.761-1.946,2.649L12.883,36.5l-1.955-.4,0-.761a2.812,2.812,0,0,0-1.942-2.824c-2.5-.751-3.552-3.089-2.76-6.475.927-3.967,4.553-8.851,8.96-12.128A26.291,26.291,0,0,1,17.7,12.263a14.017,14.017,0,0,1,7.379-2.217,4.242,4.242,0,0,1,4.35,4.6Z" fill="#fedb41"/>
        <g id="g573">
          <path id="path565" d="M29.429,14.642a14.5,14.5,0,0,1-2.889,7.693,10.148,10.148,0,0,0-1.959,5.122l0,.761-1.946,2.649L17.76,33.682,17.7,12.263a14.017,14.017,0,0,1,7.379-2.217,4.242,4.242,0,0,1,4.35,4.6Z" fill="#fcbf29"/>
          <path id="path567" d="M4.01,30.842,2.06,31.969c-.539.311-.976.223-.977-.2a1.875,1.875,0,0,1,.973-1.324L4.006,29.32c.539-.311.976-.223.977.2a1.875,1.875,0,0,1-.973,1.324Z" fill="#fcbf29"/>
          <path id="path569" d="M3.023,27.153l-1.382-.28c-.382-.077-.383-.559,0-1.077A1.707,1.707,0,0,1,3.017,25l1.382.28c.382.077.383.559,0,1.077a1.707,1.707,0,0,1-1.379.8Z" fill="#fcbf29"/>
          <path id="path571" d="M1.67,37.085c-.382-.077-.383-.559,0-1.077l1.376-1.873a1.707,1.707,0,0,1,1.379-.8c.382.077.383.559,0,1.077L3.049,36.289a1.707,1.707,0,0,1-1.379.8Z" fill="#fcbf29"/>
        </g>
        <g id="g581">
          <path id="path575" d="M33.4,13.875,31.449,15c-.539.311-.976.223-.977-.2a1.876,1.876,0,0,1,.973-1.324L33.4,12.352c.539-.311.976-.223.977.2A1.876,1.876,0,0,1,33.4,13.875Z" fill="#fea832"/>
          <path id="path577" d="M31.033,10.981c-.382-.077-.383-.559,0-1.077l1.376-1.873a1.707,1.707,0,0,1,1.379-.8c.382.077.383.559,0,1.077l-1.376,1.873a1.707,1.707,0,0,1-1.379.8Z" fill="#fea832"/>
          <path id="path579" d="M32.438,19.321l-1.382-.28c-.382-.077-.383-.559,0-1.077a1.707,1.707,0,0,1,1.379-.8l1.382.28c.382.077.383.559,0,1.077A1.707,1.707,0,0,1,32.438,19.321Z" fill="#fea832"/>
        </g>
        <path id="path583" d="M21.661,31.43l-7.8,4.5a1.853,1.853,0,0,0-.973,1.324c.006,2.1,2.2,2.545,4.887.991s4.872-4.521,4.866-6.622c0-.426-.431-.514-.977-.2Z" fill="#57555c"/>
        <path id="path585" d="M18.711,24.643l.022,7.715a1.853,1.853,0,0,1-.973,1.324c-.546.315-.976.228-.977-.2l-.022-7.715a1.853,1.853,0,0,1,.973-1.324c.546-.315.976-.228.977.2Z" fill="#b35c4b"/>
        <path id="path587" d="M18.711,24.643l.022,7.715a1.853,1.853,0,0,1-.973,1.324l-.026-9.238c.546-.315.976-.228.977.2Z" fill="#8b432d"/>
        <path id="path589" d="M23.573,16.5l-1.951,1.126a11.427,11.427,0,0,0-3.9,3.806c-.9-.426-2.306-.224-3.906.7l-1.951,1.126a1.853,1.853,0,0,0-.973,1.324l0,1.523c.006,2.1,2.2,2.545,4.887.991l3.9-2.252c2.692-1.554,4.872-4.521,4.866-6.622l0-1.523c0-.426-.431-.514-.977-.2Z" fill="#98d400"/>
        <path id="path591" d="M24.55,16.7l0,1.523c.006,2.1-2.174,5.068-4.866,6.622l-1.951,1.126-.013-4.538a11.427,11.427,0,0,1,3.9-3.806L23.573,16.5C24.119,16.183,24.549,16.27,24.55,16.7Z" fill="#7fbf00"/>
        <path id="path593" d="M22.638,31.628c.006,2.1-2.174,5.068-4.866,6.622l-.013-4.568,3.9-2.252c.546-.315.976-.228.977.2Z" fill="#3c3a41"/>
        <path id="path595" d="M24.583,28.218l0,.761c0,1.264-1.3,3.039-2.919,3.973l-7.8,4.5c-1.619.935-2.929.669-2.932-.595l0-.761Z" fill="#cae8f9"/>
        <path id="path597" d="M24.583,28.218l0,.761c0,1.264-1.3,3.039-2.919,3.973l-3.9,2.252-.009-3.045Z" fill="#a4d9f5"/>
      </g>
    </g>
  </g>
</svg>
